<svg width="28" height="28" viewBox="0 0 28 28" fill="none" xmlns="http://www.w3.org/2000/svg">
<path fill-rule="evenodd" clip-rule="evenodd" d="M1.79733 13.0719C5.18622 8.21412 9.58028 5.11133 13.9823 5.11133C19.1524 5.11133 23.6059 9.03499 26.2334 13.0931L26.2346 13.095C26.4085 13.3652 26.501 13.6797 26.501 14.001C26.501 14.3217 26.4089 14.6356 26.2356 14.9055C23.6103 19.0159 19.1856 22.8891 13.9823 22.8891C8.72367 22.8891 4.38423 19.0228 1.76544 14.9243C1.58749 14.648 1.4952 14.3253 1.50019 13.9966C1.5052 13.6672 1.60775 13.3466 1.79489 13.0754L1.79733 13.0719ZM3.16667 14.022L3.16898 14.0255C5.58779 17.8118 9.46459 21.2224 13.9823 21.2224C18.4495 21.2224 22.4099 17.7997 24.8316 14.0074L24.8332 14.0049L24.8343 14.001L24.8341 13.9993L24.8333 13.9972C22.4023 10.2437 18.4095 6.77799 13.9823 6.77799C10.2666 6.77799 6.33361 9.48417 3.16667 14.022Z" fill="white"/>
<path fill-rule="evenodd" clip-rule="evenodd" d="M13.9991 11.0371C12.3627 11.0371 11.0362 12.3637 11.0362 14.0001C11.0362 15.6365 12.3627 16.9631 13.9991 16.9631C15.6355 16.9631 16.9621 15.6365 16.9621 14.0001C16.9621 12.3637 15.6355 11.0371 13.9991 11.0371ZM9.55469 14.0001C9.55469 11.5455 11.5445 9.55566 13.9991 9.55566C16.4537 9.55566 18.4436 11.5455 18.4436 14.0001C18.4436 16.4547 16.4537 18.4446 13.9991 18.4446C11.5445 18.4446 9.55469 16.4547 9.55469 14.0001Z" fill="white"/>
</svg>
