<svg width="32" height="32" viewBox="0 0 32 32" fill="none" xmlns="http://www.w3.org/2000/svg">
<path d="M15.7015 0C8.71272 0 3.53465 4.92308 3.04213 11.3934C2.15068 23.1046 15.7015 32 15.7015 32C15.7015 32 29.6828 23.5591 28.3608 11.3934C27.6577 4.92308 22.6902 0 15.7015 0Z" fill="#004CC4"/>
<circle cx="15.8422" cy="12.8007" r="9.84615" fill="white"/>
<g clip-path="url(#clip0_4147_224096)">
<path d="M14.4044 10.4201C14.4375 10.354 14.4897 10.2992 14.5543 10.2631C14.6188 10.2269 14.6928 10.2109 14.7665 10.2173C14.8402 10.2237 14.9103 10.2521 14.9677 10.2988C15.0251 10.3455 15.0672 10.4083 15.0884 10.4792L15.9284 13.2798L16.6207 11.8971C16.6514 11.8358 16.6985 11.7842 16.7569 11.7481C16.8152 11.7121 16.8824 11.693 16.951 11.693C17.0195 11.693 17.0867 11.7121 17.1451 11.7481C17.2034 11.7842 17.2505 11.8358 17.2812 11.8971L17.9167 13.17H20.1497C20.4821 12.4846 20.6508 11.7313 20.6423 10.9696C20.6278 9.5363 19.4779 8.37 18.079 8.37C16.9692 8.37 16.2328 9.05169 15.8423 9.54692C15.4528 9.051 14.7155 8.37 13.6057 8.37C12.2068 8.37 11.0569 9.5363 11.0423 10.9696C11.0364 11.4646 11.1059 11.9575 11.2484 12.4315H13.3987L14.4044 10.4201Z" fill="#004CC4"/>
<path d="M17.3582 13.7045L16.95 12.888L16.1726 14.4429C16.1419 14.5043 16.0947 14.5558 16.0364 14.5918C15.9781 14.6279 15.9109 14.647 15.8423 14.6469C15.832 14.6469 15.8214 14.6465 15.8105 14.6456C15.7366 14.6394 15.6662 14.6112 15.6086 14.5645C15.551 14.5178 15.5087 14.4549 15.4874 14.3839L14.6474 11.5833L13.9551 12.966C13.9246 13.027 13.8778 13.0784 13.8198 13.1144C13.7619 13.1504 13.6951 13.1696 13.6269 13.17H11.535C11.7504 13.6206 12.0371 14.0642 12.3951 14.5006C12.8282 15.0286 13.6136 15.8728 15.4272 17.1039C15.5495 17.1878 15.6943 17.2326 15.8426 17.2326C15.9908 17.2326 16.1356 17.1878 16.2579 17.1039C18.0716 15.8728 18.8569 15.0286 19.29 14.5006C19.446 14.3107 19.5924 14.1131 19.7285 13.9085H17.6885C17.6199 13.9085 17.5527 13.8894 17.4944 13.8534C17.4361 13.8173 17.3889 13.7658 17.3582 13.7045ZM20.6423 13.17H20.1496C20.0269 13.4258 19.8861 13.6726 19.7285 13.9085H20.6423C20.7403 13.9085 20.8342 13.8696 20.9034 13.8003C20.9727 13.7311 21.0116 13.6372 21.0116 13.5393C21.0116 13.4413 20.9727 13.3474 20.9034 13.2782C20.8342 13.2089 20.7403 13.17 20.6423 13.17ZM11.0423 12.4316C10.9444 12.4316 10.8505 12.4705 10.7812 12.5397C10.712 12.6089 10.6731 12.7029 10.6731 12.8008C10.6731 12.8987 10.712 12.9926 10.7812 13.0619C10.8505 13.1311 10.9444 13.17 11.0423 13.17H11.535C11.4208 12.9315 11.325 12.6846 11.2484 12.4316H11.0423Z" fill="#004CC4"/>
</g>
<defs>
<clipPath id="clip0_4147_224096">
<rect width="11.8154" height="11.8154" fill="white" transform="translate(9.93457 6.89307)"/>
</clipPath>
</defs>
</svg>
