<svg width="32" height="32" viewBox="0 0 32 32" fill="none" xmlns="http://www.w3.org/2000/svg">
<path d="M15.7015 0C8.71272 0 3.53465 4.92308 3.04213 11.3934C2.15068 23.1046 15.7015 32 15.7015 32C15.7015 32 29.6828 23.5591 28.3608 11.3934C27.6577 4.92308 22.6902 0 15.7015 0Z" fill="#004CC4"/>
<circle cx="15.8422" cy="12.8007" r="9.84615" fill="white"/>
<g clip-path="url(#clip0_4147_224091)">
<path d="M19.9039 10.9546H17.3192V8.37002C17.3192 8.07624 17.2025 7.7945 16.9948 7.58676C16.7871 7.37903 16.5053 7.26233 16.2116 7.26233H11.7808C11.487 7.26233 11.2053 7.37903 10.9975 7.58676C10.7898 7.7945 10.6731 8.07624 10.6731 8.37002V17.97C10.6731 18.0679 10.712 18.1619 10.7812 18.2311C10.8505 18.3004 10.9444 18.3393 11.0423 18.3393H13.4423C13.4913 18.3393 13.5382 18.3198 13.5729 18.2852C13.6075 18.2506 13.6269 18.2036 13.6269 18.1546V16.5035C13.6269 16.3048 13.7797 16.1343 13.9784 16.1243C14.0283 16.1219 14.0782 16.1297 14.1251 16.1471C14.1719 16.1646 14.2147 16.1913 14.2509 16.2258C14.2871 16.2603 14.3159 16.3018 14.3356 16.3477C14.3552 16.3937 14.3654 16.4431 14.3654 16.4931V18.1546C14.3654 18.2036 14.3849 18.2506 14.4195 18.2852C14.4541 18.3198 14.5011 18.3393 14.55 18.3393H20.6423C20.7403 18.3393 20.8342 18.3004 20.9034 18.2311C20.9727 18.1619 21.0116 18.0679 21.0116 17.97V12.0623C21.0116 11.7686 20.8949 11.4868 20.6871 11.2791C20.4794 11.0713 20.1976 10.9546 19.9039 10.9546ZM12.198 16.8593C12.1215 16.8693 12.0439 16.8551 11.9759 16.8187C11.9079 16.7823 11.853 16.7256 11.8189 16.6564C11.7848 16.5872 11.7733 16.5091 11.7859 16.433C11.7984 16.3569 11.8345 16.2867 11.8891 16.2321C11.9436 16.1776 12.0138 16.1415 12.0899 16.1289C12.166 16.1164 12.2441 16.1279 12.3133 16.162C12.3825 16.1961 12.4393 16.251 12.4757 16.319C12.5121 16.3869 12.5263 16.4646 12.5162 16.5411C12.5057 16.6218 12.4688 16.6968 12.4112 16.7543C12.3537 16.8119 12.2787 16.8488 12.198 16.8593ZM12.198 15.0132C12.1215 15.0232 12.0439 15.009 11.9759 14.9726C11.9079 14.9362 11.853 14.8794 11.8189 14.8102C11.7848 14.741 11.7733 14.6629 11.7859 14.5868C11.7984 14.5107 11.8345 14.4405 11.8891 14.386C11.9436 14.3314 12.0138 14.2954 12.0899 14.2828C12.166 14.2702 12.2441 14.2818 12.3133 14.3158C12.3825 14.3499 12.4393 14.4048 12.4757 14.4728C12.5121 14.5408 12.5263 14.6185 12.5162 14.6949C12.5057 14.7756 12.4688 14.8506 12.4112 14.9081C12.3537 14.9657 12.2787 15.0026 12.198 15.0132ZM12.198 13.167C12.1215 13.177 12.0439 13.1628 11.9759 13.1264C11.9079 13.09 11.853 13.0333 11.8189 12.9641C11.7848 12.8949 11.7733 12.8168 11.7859 12.7407C11.7984 12.6646 11.8345 12.5944 11.8891 12.5398C11.9436 12.4853 12.0138 12.4492 12.0899 12.4366C12.166 12.424 12.2441 12.4356 12.3133 12.4697C12.3825 12.5038 12.4393 12.5587 12.4757 12.6266C12.5121 12.6946 12.5263 12.7723 12.5162 12.8488C12.5057 12.9295 12.4688 13.0044 12.4112 13.062C12.3537 13.1195 12.2787 13.1565 12.198 13.167ZM12.198 11.3209C12.1215 11.3309 12.0439 11.3167 11.9759 11.2803C11.9079 11.2439 11.853 11.1871 11.8189 11.1179C11.7848 11.0487 11.7733 10.9706 11.7859 10.8945C11.7984 10.8184 11.8345 10.7482 11.8891 10.6937C11.9436 10.6391 12.0138 10.603 12.0899 10.5905C12.166 10.5779 12.2441 10.5895 12.3133 10.6235C12.3825 10.6576 12.4393 10.7125 12.4757 10.7805C12.5121 10.8485 12.5263 10.9262 12.5162 11.0026C12.5057 11.0833 12.4688 11.1583 12.4112 11.2158C12.3537 11.2734 12.2787 11.3103 12.198 11.3209ZM12.198 9.47471C12.1215 9.48471 12.0439 9.47052 11.9759 9.43412C11.9079 9.39772 11.853 9.34095 11.8189 9.27177C11.7848 9.20258 11.7733 9.12447 11.7859 9.04838C11.7984 8.97229 11.8345 8.90205 11.8891 8.84752C11.9436 8.79298 12.0138 8.75689 12.0899 8.74431C12.166 8.73174 12.2441 8.7433 12.3133 8.77738C12.3825 8.81146 12.4393 8.86635 12.4757 8.93434C12.5121 9.00233 12.5263 9.08001 12.5162 9.15648C12.5057 9.23718 12.4688 9.31214 12.4112 9.36969C12.3537 9.42724 12.2787 9.46416 12.198 9.47471ZM14.0442 15.0132C13.9677 15.0232 13.89 15.009 13.822 14.9726C13.754 14.9362 13.6991 14.8794 13.6651 14.8102C13.631 14.741 13.6194 14.6629 13.632 14.5868C13.6446 14.5107 13.6807 14.4405 13.7352 14.386C13.7897 14.3314 13.86 14.2954 13.9361 14.2828C14.0122 14.2702 14.0903 14.2818 14.1595 14.3158C14.2286 14.3499 14.2854 14.4048 14.3218 14.4728C14.3582 14.5408 14.3724 14.6185 14.3624 14.6949C14.3518 14.7756 14.3149 14.8506 14.2574 14.9081C14.1998 14.9657 14.1249 15.0026 14.0442 15.0132ZM14.0442 13.167C13.9677 13.177 13.89 13.1628 13.822 13.1264C13.754 13.09 13.6991 13.0333 13.6651 12.9641C13.631 12.8949 13.6194 12.8168 13.632 12.7407C13.6446 12.6646 13.6807 12.5944 13.7352 12.5398C13.7897 12.4853 13.86 12.4492 13.9361 12.4366C14.0122 12.424 14.0903 12.4356 14.1595 12.4697C14.2286 12.5038 14.2854 12.5587 14.3218 12.6266C14.3582 12.6946 14.3724 12.7723 14.3624 12.8488C14.3518 12.9295 14.3149 13.0044 14.2574 13.062C14.1998 13.1195 14.1249 13.1565 14.0442 13.167ZM14.0442 11.3209C13.9677 11.3309 13.89 11.3167 13.822 11.2803C13.754 11.2439 13.6991 11.1871 13.6651 11.1179C13.631 11.0487 13.6194 10.9706 13.632 10.8945C13.6446 10.8184 13.6807 10.7482 13.7352 10.6937C13.7897 10.6391 13.86 10.603 13.9361 10.5905C14.0122 10.5779 14.0903 10.5895 14.1595 10.6235C14.2286 10.6576 14.2854 10.7125 14.3218 10.7805C14.3582 10.8485 14.3724 10.9262 14.3624 11.0026C14.3518 11.0833 14.3149 11.1583 14.2574 11.2158C14.1998 11.2734 14.1249 11.3103 14.0442 11.3209ZM14.0442 9.47471C13.9677 9.48471 13.89 9.47052 13.822 9.43412C13.754 9.39772 13.6991 9.34095 13.6651 9.27177C13.631 9.20258 13.6194 9.12447 13.632 9.04838C13.6446 8.97229 13.6807 8.90205 13.7352 8.84752C13.7897 8.79298 13.86 8.75689 13.9361 8.74431C14.0122 8.73174 14.0903 8.7433 14.1595 8.77738C14.2286 8.81146 14.2854 8.86635 14.3218 8.93434C14.3582 9.00233 14.3724 9.08001 14.3624 9.15648C14.3518 9.23718 14.3149 9.31214 14.2574 9.36969C14.1998 9.42724 14.1249 9.46416 14.0442 9.47471ZM15.8903 16.8593C15.8139 16.8693 15.7362 16.8551 15.6682 16.8187C15.6002 16.7823 15.5453 16.7256 15.5112 16.6564C15.4771 16.5872 15.4656 16.5091 15.4782 16.433C15.4907 16.3569 15.5268 16.2867 15.5814 16.2321C15.6359 16.1776 15.7061 16.1415 15.7822 16.1289C15.8583 16.1164 15.9364 16.1279 16.0056 16.162C16.0748 16.1961 16.1316 16.251 16.168 16.319C16.2044 16.3869 16.2186 16.4646 16.2086 16.5411C16.198 16.6218 16.1611 16.6968 16.1035 16.7543C16.046 16.8119 15.971 16.8488 15.8903 16.8593ZM15.8903 15.0132C15.8139 15.0232 15.7362 15.009 15.6682 14.9726C15.6002 14.9362 15.5453 14.8794 15.5112 14.8102C15.4771 14.741 15.4656 14.6629 15.4782 14.5868C15.4907 14.5107 15.5268 14.4405 15.5814 14.386C15.6359 14.3314 15.7061 14.2954 15.7822 14.2828C15.8583 14.2702 15.9364 14.2818 16.0056 14.3158C16.0748 14.3499 16.1316 14.4048 16.168 14.4728C16.2044 14.5408 16.2186 14.6185 16.2086 14.6949C16.198 14.7756 16.1611 14.8506 16.1035 14.9081C16.046 14.9657 15.971 15.0026 15.8903 15.0132ZM15.8903 13.167C15.8139 13.177 15.7362 13.1628 15.6682 13.1264C15.6002 13.09 15.5453 13.0333 15.5112 12.9641C15.4771 12.8949 15.4656 12.8168 15.4782 12.7407C15.4907 12.6646 15.5268 12.5944 15.5814 12.5398C15.6359 12.4853 15.7061 12.4492 15.7822 12.4366C15.8583 12.424 15.9364 12.4356 16.0056 12.4697C16.0748 12.5038 16.1316 12.5587 16.168 12.6266C16.2044 12.6946 16.2186 12.7723 16.2086 12.8488C16.198 12.9295 16.1611 13.0044 16.1035 13.062C16.046 13.1195 15.971 13.1565 15.8903 13.167ZM15.8903 11.3209C15.8139 11.3309 15.7362 11.3167 15.6682 11.2803C15.6002 11.2439 15.5453 11.1871 15.5112 11.1179C15.4771 11.0487 15.4656 10.9706 15.4782 10.8945C15.4907 10.8184 15.5268 10.7482 15.5814 10.6937C15.6359 10.6391 15.7061 10.603 15.7822 10.5905C15.8583 10.5779 15.9364 10.5895 16.0056 10.6235C16.0748 10.6576 16.1316 10.7125 16.168 10.7805C16.2044 10.8485 16.2186 10.9262 16.2086 11.0026C16.198 11.0833 16.1611 11.1583 16.1035 11.2158C16.046 11.2734 15.971 11.3103 15.8903 11.3209ZM15.8903 9.47471C15.8139 9.48471 15.7362 9.47052 15.6682 9.43412C15.6002 9.39772 15.5453 9.34095 15.5112 9.27177C15.4771 9.20258 15.4656 9.12447 15.4782 9.04838C15.4907 8.97229 15.5268 8.90205 15.5814 8.84752C15.6359 8.79298 15.7061 8.75689 15.7822 8.74431C15.8583 8.73174 15.9364 8.7433 16.0056 8.77738C16.0748 8.81146 16.1316 8.86635 16.168 8.93434C16.2044 9.00233 16.2186 9.08001 16.2086 9.15648C16.198 9.23718 16.1611 9.31214 16.1035 9.36969C16.046 9.42724 15.971 9.46416 15.8903 9.47471ZM20.1808 17.6008H17.3192V11.6931H19.9039C20.0018 11.6931 20.0957 11.732 20.165 11.8012C20.2342 11.8705 20.2731 11.9644 20.2731 12.0623V17.5085C20.2731 17.533 20.2634 17.5564 20.2461 17.5738C20.2287 17.5911 20.2053 17.6008 20.1808 17.6008Z" fill="#004CC4"/>
<path d="M19.1652 16.1238C19.0922 16.1238 19.0208 16.1455 18.9601 16.1861C18.8994 16.2266 18.8521 16.2843 18.8241 16.3518C18.7962 16.4192 18.7889 16.4935 18.8031 16.5651C18.8174 16.6367 18.8525 16.7025 18.9042 16.7541C18.9558 16.8058 19.0216 16.8409 19.0932 16.8552C19.1648 16.8694 19.2391 16.8621 19.3065 16.8342C19.374 16.8062 19.4317 16.7589 19.4723 16.6982C19.5128 16.6375 19.5345 16.5661 19.5345 16.4931C19.5345 16.3951 19.4956 16.3012 19.4263 16.232C19.3571 16.1627 19.2632 16.1238 19.1652 16.1238ZM19.1652 14.2777C19.0922 14.2777 19.0208 14.2993 18.9601 14.3399C18.8994 14.3805 18.8521 14.4381 18.8241 14.5056C18.7962 14.5731 18.7889 14.6473 18.8031 14.7189C18.8174 14.7906 18.8525 14.8564 18.9042 14.908C18.9558 14.9596 19.0216 14.9948 19.0932 15.009C19.1648 15.0233 19.2391 15.016 19.3065 14.988C19.374 14.9601 19.4317 14.9128 19.4723 14.852C19.5128 14.7913 19.5345 14.7199 19.5345 14.6469C19.5345 14.549 19.4956 14.4551 19.4263 14.3858C19.3571 14.3166 19.2632 14.2777 19.1652 14.2777ZM19.1652 12.4315C19.0922 12.4315 19.0208 12.4532 18.9601 12.4937C18.8994 12.5343 18.8521 12.592 18.8241 12.6595C18.7962 12.7269 18.7889 12.8012 18.8031 12.8728C18.8174 12.9444 18.8525 13.0102 18.9042 13.0618C18.9558 13.1135 19.0216 13.1486 19.0932 13.1629C19.1648 13.1771 19.2391 13.1698 19.3065 13.1419C19.374 13.1139 19.4317 13.0666 19.4723 13.0059C19.5128 12.9452 19.5345 12.8738 19.5345 12.8007C19.5345 12.7028 19.4956 12.6089 19.4263 12.5397C19.3571 12.4704 19.2632 12.4315 19.1652 12.4315ZM17.6883 16.1238C17.6153 16.1238 17.5439 16.1455 17.4832 16.1861C17.4225 16.2266 17.3751 16.2843 17.3472 16.3518C17.3193 16.4192 17.3119 16.4935 17.3262 16.5651C17.3404 16.6367 17.3756 16.7025 17.4272 16.7541C17.4789 16.8058 17.5447 16.8409 17.6163 16.8552C17.6879 16.8694 17.7622 16.8621 17.8296 16.8342C17.8971 16.8062 17.9548 16.7589 17.9953 16.6982C18.0359 16.6375 18.0576 16.5661 18.0576 16.4931C18.0576 16.3951 18.0187 16.3012 17.9494 16.232C17.8802 16.1627 17.7862 16.1238 17.6883 16.1238ZM17.6883 14.2777C17.6153 14.2777 17.5439 14.2993 17.4832 14.3399C17.4225 14.3805 17.3751 14.4381 17.3472 14.5056C17.3193 14.5731 17.3119 14.6473 17.3262 14.7189C17.3404 14.7906 17.3756 14.8564 17.4272 14.908C17.4789 14.9596 17.5447 14.9948 17.6163 15.009C17.6879 15.0233 17.7622 15.016 17.8296 14.988C17.8971 14.9601 17.9548 14.9128 17.9953 14.852C18.0359 14.7913 18.0576 14.7199 18.0576 14.6469C18.0576 14.549 18.0187 14.4551 17.9494 14.3858C17.8802 14.3166 17.7862 14.2777 17.6883 14.2777ZM17.6883 12.4315C17.6153 12.4315 17.5439 12.4532 17.4832 12.4937C17.4225 12.5343 17.3751 12.592 17.3472 12.6595C17.3193 12.7269 17.3119 12.8012 17.3262 12.8728C17.3404 12.9444 17.3756 13.0102 17.4272 13.0618C17.4789 13.1135 17.5447 13.1486 17.6163 13.1629C17.6879 13.1771 17.7622 13.1698 17.8296 13.1419C17.8971 13.1139 17.9548 13.0666 17.9953 13.0059C18.0359 12.9452 18.0576 12.8738 18.0576 12.8007C18.0576 12.7028 18.0187 12.6089 17.9494 12.5397C17.8802 12.4704 17.7862 12.4315 17.6883 12.4315Z" fill="#004CC4"/>
</g>
<defs>
<clipPath id="clip0_4147_224091">
<rect width="11.8154" height="11.8154" fill="white" transform="translate(9.93457 6.89307)"/>
</clipPath>
</defs>
</svg>
