<svg width="18" height="18" viewBox="0 0 18 18" fill="none" xmlns="http://www.w3.org/2000/svg">
<path d="M3.00001 0.600098C2.33726 0.600098 1.80001 1.13736 1.80001 1.8001C1.80001 2.46284 2.33726 3.0001 3.00001 3.0001C9.62742 3.0001 15 8.37268 15 15.0001C15 15.6628 15.5373 16.2001 16.2 16.2001C16.8627 16.2001 17.4 15.6628 17.4 15.0001C17.4 7.0472 10.9529 0.600098 3.00001 0.600098Z" fill="#1A2D82"/>
<path d="M1.80001 7.8001C1.80001 7.13736 2.33726 6.6001 3.00001 6.6001C7.6392 6.6001 11.4 10.3609 11.4 15.0001C11.4 15.6628 10.8627 16.2001 10.2 16.2001C9.53726 16.2001 9.00001 15.6628 9.00001 15.0001C9.00001 11.6864 6.31371 9.0001 3.00001 9.0001C2.33726 9.0001 1.80001 8.46284 1.80001 7.8001Z" fill="#1A2D82"/>
<path d="M0.600006 15.0001C0.600006 13.6746 1.67452 12.6001 3.00001 12.6001C4.32549 12.6001 5.40001 13.6746 5.40001 15.0001C5.40001 16.3256 4.32549 17.4001 3.00001 17.4001C1.67452 17.4001 0.600006 16.3256 0.600006 15.0001Z" fill="#1A2D82"/>
</svg>
