<svg width="32" height="32" viewBox="0 0 32 32" fill="none" xmlns="http://www.w3.org/2000/svg">
<path d="M15.7015 0C8.71272 0 3.53465 4.92308 3.04213 11.3934C2.15068 23.1046 15.7015 32 15.7015 32C15.7015 32 29.6828 23.5591 28.3608 11.3934C27.6577 4.92308 22.6902 0 15.7015 0Z" fill="#004CC4"/>
<circle cx="15.8422" cy="12.8007" r="9.84615" fill="white"/>
<g clip-path="url(#clip0_4147_224093)">
<path d="M12.7514 9.70979C11.7275 10.7337 11.2119 12.0316 10.9514 13.0624L15.5806 17.6907C16.6115 17.4311 17.9093 16.9156 18.9332 15.8907C19.9572 14.8659 20.4727 13.5689 20.7332 12.5381L16.104 7.91071C15.0732 8.17033 13.7753 8.68587 12.7514 9.70979ZM16.8727 11.2546L17.3885 10.7402C17.4577 10.6773 17.5485 10.6435 17.642 10.6458C17.7355 10.6481 17.8245 10.6862 17.8907 10.7524C17.9568 10.8185 17.9949 10.9075 17.9972 11.001C17.9995 11.0945 17.9657 11.1853 17.9028 11.2546L17.3885 11.7703L17.646 12.0281C17.7143 12.0964 17.7527 12.189 17.7527 12.2856C17.7527 12.3822 17.7143 12.4749 17.646 12.5432C17.5777 12.6115 17.4851 12.6499 17.3885 12.6499C17.2919 12.6499 17.1992 12.6115 17.1309 12.5432L16.8734 12.2856L16.3574 12.8007L16.6149 13.0583C16.6832 13.1266 16.7216 13.2192 16.7216 13.3158C16.7216 13.4124 16.6832 13.505 16.6149 13.5733C16.5466 13.6416 16.454 13.68 16.3574 13.68C16.2608 13.68 16.1681 13.6416 16.0998 13.5733L15.8423 13.3158L15.3272 13.8311L15.5848 14.0886C15.6186 14.1225 15.6454 14.1626 15.6637 14.2068C15.682 14.251 15.6914 14.2983 15.6914 14.3462C15.6914 14.394 15.682 14.4414 15.6637 14.4856C15.6454 14.5297 15.6186 14.5699 15.5848 14.6037C15.5509 14.6375 15.5108 14.6644 15.4666 14.6827C15.4224 14.701 15.3751 14.7104 15.3272 14.7104C15.2794 14.7104 15.232 14.701 15.1879 14.6827C15.1437 14.6644 15.1035 14.6375 15.0697 14.6037L14.8119 14.3469L14.2962 14.8613C14.2269 14.9241 14.1361 14.9579 14.0426 14.9556C13.9491 14.9533 13.8601 14.9152 13.794 14.8491C13.7278 14.7829 13.6897 14.6939 13.6874 14.6004C13.6851 14.5069 13.7189 14.4161 13.7818 14.3469L14.2962 13.8311L14.0386 13.5733C13.9703 13.505 13.9319 13.4124 13.9319 13.3158C13.9319 13.2192 13.9703 13.1266 14.0386 13.0583C14.1069 12.9899 14.1996 12.9516 14.2962 12.9516C14.3927 12.9516 14.4854 12.9899 14.5537 13.0583L14.8112 13.3158L15.3272 12.8007L15.0697 12.5432C15.0359 12.5094 15.009 12.4692 14.9907 12.425C14.9724 12.3808 14.963 12.3335 14.963 12.2856C14.963 12.2378 14.9724 12.1904 14.9907 12.1463C15.009 12.1021 15.0359 12.0619 15.0697 12.0281C15.1035 11.9943 15.1437 11.9675 15.1879 11.9491C15.232 11.9308 15.2794 11.9214 15.3272 11.9214C15.3751 11.9214 15.4224 11.9308 15.4666 11.9491C15.5108 11.9675 15.5509 11.9943 15.5848 12.0281L15.8423 12.2856L16.3574 11.7703L16.0998 11.5128C16.0315 11.4445 15.9932 11.3518 15.9932 11.2553C15.9932 11.1587 16.0315 11.066 16.0998 10.9977C16.1681 10.9294 16.2608 10.891 16.3574 10.891C16.454 10.891 16.5466 10.9294 16.6149 10.9977L16.8727 11.2546ZM20.9324 11.4999C21.1011 10.2415 21.0247 8.72464 20.4708 8.17194C19.917 7.61925 18.4013 7.54194 17.1429 7.71041C17.085 7.71825 17.0238 7.72702 16.9604 7.73694L20.9065 11.6831C20.9158 11.6189 20.9245 11.5578 20.9324 11.4999ZM10.7522 14.1016C10.5835 15.3599 10.6599 16.8768 11.2138 17.4295C11.6001 17.816 12.4578 17.9699 13.3694 17.9699C13.7614 17.9693 14.1529 17.9429 14.5415 17.8908C14.5994 17.8829 14.6605 17.8742 14.724 17.8643L10.7778 13.9181C10.7688 13.9825 10.7601 14.0436 10.7522 14.1016Z" fill="#004CC4"/>
</g>
<defs>
<clipPath id="clip0_4147_224093">
<rect width="11.8154" height="11.8154" fill="white" transform="translate(9.93457 6.89307)"/>
</clipPath>
</defs>
</svg>
