<svg width="24" height="25" viewBox="0 0 24 25" fill="none" xmlns="http://www.w3.org/2000/svg">
<path d="M2.80604 12.2726C4.69374 11.2328 6.80093 10.365 8.76979 9.49269C12.157 8.06398 15.5576 6.66004 18.9926 5.35299C19.6609 5.13028 20.8618 4.91248 20.9795 5.9029C20.915 7.30482 20.6498 8.69854 20.4679 10.0923C20.0061 13.1572 19.4724 16.2116 18.952 19.2664C18.7727 20.2839 17.498 20.8107 16.6824 20.1595C14.7222 18.8355 12.7471 17.5244 10.812 16.1697C10.1781 15.5256 10.7659 14.6007 11.332 14.1407C12.9464 12.5497 14.6585 11.198 16.1886 9.52478C16.6013 8.52811 15.3818 9.36808 14.9796 9.62544C12.7695 11.1485 10.6134 12.7645 8.28326 14.103C7.09301 14.7582 5.70575 14.1983 4.51604 13.8327C3.44931 13.391 1.88616 12.9461 2.80593 12.2727L2.80604 12.2726Z" fill="white"/>
</svg>
