<svg width="141" height="136" viewBox="0 0 141 136" fill="none" xmlns="http://www.w3.org/2000/svg">
<path d="M42.6676 96.1928C43.218 96.4135 43.8789 96.5237 44.4297 96.5237C45.3113 96.5237 46.0824 96.303 46.8528 95.9729C47.9547 95.4221 48.9457 94.651 49.9375 94.1006V107.539H55.4453C58.5301 107.539 60.9531 109.962 60.9531 113.047V118.555H27.9062V113.047C27.9062 109.962 30.3293 107.539 33.4141 107.539H38.9219V94.7615C40.1336 95.2018 41.3449 95.7526 42.6676 96.1928Z" fill="#F1F1F2" fill-opacity="0.6"/>
<path d="M23.3645 129.57H65.4949C74.7127 129.57 82.9212 136.691 82.9836 145.909C82.9844 145.971 82.9844 168.492 82.9844 168.492C82.9844 171.534 80.5183 174 77.4766 174H11.3828C8.34103 174 5.875 171.534 5.875 168.492C5.875 168.492 5.87501 145.971 5.87574 145.909C5.93816 136.691 14.1466 129.57 23.3645 129.57Z" fill="#F1F1F2" fill-opacity="0.6"/>
<path d="M7.892 9.64644C9.16137 8.6084 10.8181 8.21037 12.4638 8.50632L35.1619 13.0459C52.546 16.5261 66.4393 29.1496 70.5592 45.2159C75.4718 64.3871 67.2589 83.7794 49.9375 94.0944V75.6543C49.9375 65.0099 47.8504 54.6343 43.7306 44.8234C42.5582 42.0103 39.3199 40.6819 36.5231 41.8759C33.7156 43.0539 32.3977 46.2811 33.5757 49.0835C37.1201 57.5442 38.9219 66.4834 38.9219 75.6543V94.7197C23.7277 88.3534 12.2046 75.4725 7.79506 59.4264C7.33791 57.7697 7.68197 55.9947 8.72551 54.6287C9.43015 53.7034 10.4036 53.0366 11.4901 52.7032C7.827 46.2862 5.87466 39.0145 5.87466 31.4464V13.9065C5.87503 12.2553 6.61713 10.6955 7.892 9.64644Z" fill="#F1F1F2" fill-opacity="0.6"/>
<path d="M71.8586 111.175C71.1976 105.557 67.6726 100.93 62.7152 98.5062C70.6469 92.0074 76.2648 83.6355 79.6797 74.4922C87.5004 52.9012 81.0015 27.5656 60.5125 12.4742C54.3437 8.0676 47.2937 4.76328 39.693 2.89062C42.116 -6.58281 50.7086 -14 60.9531 -14H152.163C152.1 -13.8876 152.037 -13.7753 151.974 -13.6633C150.209 -10.4486 149.078 -6.92209 149.078 -2.98438V157.477C149.078 166.62 141.698 174 132.555 174C123.522 174 116.031 166.289 116.031 157.477V146.094C116.031 143.009 113.608 140.586 110.523 140.586H93.3923C91.1917 130.319 83.1298 122.288 72.8503 119.606C72.2551 114.549 71.8586 111.175 71.8586 111.175ZM121.539 30.4297H94C90.9152 30.4297 88.4922 32.8528 88.4922 35.9375C88.4922 39.0222 90.9152 41.4453 94 41.4453H121.539C124.624 41.4453 127.047 39.0222 127.047 35.9375C127.047 32.8528 124.624 30.4297 121.539 30.4297ZM121.539 52.4609H99.5078C96.423 52.4609 94 54.884 94 57.9688C94 61.0535 96.423 63.4766 99.5078 63.4766H121.539C124.624 63.4766 127.047 61.0535 127.047 57.9688C127.047 54.884 124.624 52.4609 121.539 52.4609ZM121.539 74.4922H94C90.9152 74.4922 88.4922 76.9153 88.4922 80C88.4922 83.0847 90.9152 85.5078 94 85.5078H121.539C124.624 85.5078 127.047 83.0847 127.047 80C127.047 76.9153 124.624 74.4922 121.539 74.4922ZM88.4922 107.539H121.539C124.624 107.539 127.047 105.116 127.047 102.031C127.047 98.9465 124.624 96.5234 121.539 96.5234H88.4922C85.4074 96.5234 82.9844 98.9465 82.9844 102.031C82.9844 105.116 85.4074 107.539 88.4922 107.539Z" fill="#F1F1F2" fill-opacity="0.6"/>
</svg>
