<svg width="111" height="112" viewBox="0 0 111 112" fill="none" xmlns="http://www.w3.org/2000/svg">
<path d="M32.6815 70.4029C33.1031 70.5719 33.6094 70.6563 34.0312 70.6563C34.7065 70.6563 35.2972 70.4872 35.8872 70.2344C36.7312 69.8125 37.4903 69.2219 38.25 68.8003V79.0938H42.4688C44.8315 79.0938 46.6875 80.9497 46.6875 83.3125V87.5313H21.375V83.3125C21.375 80.9497 23.231 79.0938 25.5938 79.0938H29.8125V69.3065C30.7406 69.6438 31.6685 70.0656 32.6815 70.4029Z" fill="#80A6F7" fill-opacity="0.2"/>
<path d="M17.8962 95.9688H50.1663C57.2268 95.9688 63.5141 101.423 63.5619 108.483C63.5625 108.531 63.5625 125.781 63.5625 125.781C63.5625 128.111 61.6736 130 59.3438 130H8.71875C6.38887 130 4.5 128.111 4.5 125.781C4.5 125.781 4.5 108.531 4.50056 108.483C4.54838 101.423 10.8357 95.9688 17.8962 95.9688Z" fill="#80A6F7" fill-opacity="0.2"/>
<path d="M6.04532 4.11193C7.0176 3.31684 8.2866 3.01196 9.54716 3.23865L26.9329 6.71574C40.2484 9.38143 50.8901 19.0505 54.0457 31.3566C57.8085 46.041 51.5178 60.8946 38.2504 68.7955V54.6711C38.2504 46.518 36.6518 38.5707 33.4962 31.056C32.5981 28.9013 30.1178 27.8837 27.9755 28.7984C25.8251 29.7006 24.8157 32.1725 25.7179 34.319C28.4328 40.7996 29.8129 47.6466 29.8129 54.6711V69.2745C18.1748 64.3981 9.3486 54.5319 5.97107 42.2413C5.62091 40.9723 5.88444 39.6127 6.68375 38.5665C7.22347 37.8577 7.96907 37.347 8.80128 37.0916C5.99553 32.1765 4.50013 26.6066 4.50013 20.8097V7.37499C4.50041 6.11021 5.06882 4.91546 6.04532 4.11193Z" fill="#80A6F7" fill-opacity="0.2"/>
<path d="M55.0402 81.8784C54.5339 77.5753 51.8339 74.0315 48.0368 72.175C54.112 67.1972 58.4152 60.7847 61.0308 53.7812C67.0211 37.2435 62.0433 17.8375 46.3495 6.27812C41.6245 2.90284 36.2245 0.371875 30.4027 -1.0625C32.2586 -8.31875 38.8402 -14 46.687 -14H116.55C116.501 -13.9139 116.453 -13.8279 116.406 -13.7421C115.053 -11.2797 114.187 -8.57863 114.187 -5.5625V117.344C114.187 124.347 108.534 130 101.531 130C94.612 130 88.8745 124.094 88.8745 117.344V108.625C88.8745 106.262 87.0186 104.406 84.6558 104.406H71.5341C69.8485 96.5425 63.6734 90.3904 55.7998 88.3362C55.3439 84.4634 55.0402 81.8784 55.0402 81.8784ZM93.0933 20.0312H71.9995C69.6367 20.0312 67.7808 21.8872 67.7808 24.25C67.7808 26.6128 69.6367 28.4688 71.9995 28.4688H93.0933C95.4561 28.4688 97.312 26.6128 97.312 24.25C97.312 21.8872 95.4561 20.0312 93.0933 20.0312ZM93.0933 36.9062H76.2183C73.8555 36.9062 71.9995 38.7622 71.9995 41.125C71.9995 43.4878 73.8555 45.3438 76.2183 45.3438H93.0933C95.4561 45.3438 97.312 43.4878 97.312 41.125C97.312 38.7622 95.4561 36.9062 93.0933 36.9062ZM93.0933 53.7812H71.9995C69.6367 53.7812 67.7808 55.6372 67.7808 58C67.7808 60.3628 69.6367 62.2188 71.9995 62.2188H93.0933C95.4561 62.2188 97.312 60.3628 97.312 58C97.312 55.6372 95.4561 53.7812 93.0933 53.7812ZM67.7808 79.0938H93.0933C95.4561 79.0938 97.312 77.2378 97.312 74.875C97.312 72.5122 95.4561 70.6562 93.0933 70.6562H67.7808C65.418 70.6562 63.562 72.5122 63.562 74.875C63.562 77.2378 65.418 79.0938 67.7808 79.0938Z" fill="#80A6F7" fill-opacity="0.2"/>
</svg>
