<svg width="188" height="126" viewBox="0 0 188 126" fill="none" xmlns="http://www.w3.org/2000/svg">
<path d="M172.08 81.4551C172.08 93.6808 187.164 122.569 200.318 144.356C200.635 144.725 200.889 145.144 201.07 145.596C204.712 151.588 208.189 157.027 211.111 161.325C224.639 141.653 236.265 120.739 245.833 98.8666L245.838 98.8357L245.867 98.7848C248.365 93.3086 249.917 87.4492 250.458 81.4551C250.458 61.2554 232.878 44.8248 211.27 44.8248C189.661 44.8248 172.08 61.2554 172.08 81.4551ZM239.043 81.9101C239.041 97.2479 226.606 109.681 211.268 109.68C195.93 109.679 183.497 97.2444 183.497 81.9067C183.498 66.5689 195.931 54.1351 211.269 54.1346C226.602 54.15 239.028 66.5769 239.043 81.9101Z" fill="#80A6F7" fill-opacity="0.2"/>
<path d="M77.85 40.0098C79.4781 43.1069 81.6446 45.8886 84.2492 48.2253C85.5351 49.3919 86.0335 51.1946 85.5296 52.8562L81.3607 66.5254C80.7854 68.411 79.045 69.6994 77.0736 69.6989H72.2785C68.0582 69.6849 64.035 67.9096 61.1804 64.801C60.0553 63.4897 58.4092 62.7403 56.6812 62.7527H43.6382C41.5261 62.7323 39.5631 63.8405 38.4889 65.6592L35.3024 71.0426C34.6633 72.0919 33.9073 73.0654 33.0481 73.9446L23.1935 83.8406C22.0593 84.9923 21.4326 86.549 21.4516 88.1652V96.1008C21.4596 97.5573 21.9775 98.9649 22.9156 100.08L30.5578 109.065C31.8391 110.584 33.7936 111.364 35.7685 111.145L47.9408 109.796C50.8378 109.471 53.7663 110.01 56.3574 111.346L56.7511 111.521C61.9359 114.054 65.2161 119.328 65.1961 125.098V125.904C65.1926 126.624 65.3184 127.338 65.5684 128.013L71.768 144.593C71.8848 144.933 71.9751 145.281 72.0395 145.635H72.0375L80.6162 180.13C81.3442 183.039 80.5005 186.117 78.3909 188.249H85.814L95.2001 168.868C95.7475 167.735 96.4121 166.662 97.183 165.668L106.059 153.711C107.941 151.215 108.751 148.073 108.309 144.979L107.867 141.976C107.107 136.627 108.457 131.192 111.629 126.819C112.145 126.176 112.5 125.773 112.857 125.366L123.482 113.155C126.657 109.522 129.821 106.003 133.03 102.519C133.667 101.958 134.168 101.259 134.494 100.475C134.256 100.344 134.005 100.237 133.745 100.156C132.15 100.241 130.605 100.744 129.266 101.613C128.22 102.147 127.351 102.633 126.486 103.115C125.421 103.706 124.361 104.292 123.315 104.817C119.466 106.775 114.758 105.305 112.708 101.504L100.306 77.7812C99.9857 77.1699 99.8111 76.4928 99.7961 75.8028C99.6319 68.0164 100.407 58.0629 105.046 54.8551C108.828 52.242 127.447 50.4387 142.705 49.3709C146.131 48.1185 149.373 46.4105 152.343 44.2939C156.857 39.1545 161.827 34.4343 167.192 30.1916C167.609 29.8413 168.087 29.5698 168.602 29.3907L194.19 20.4811C150.871 -7.8892 94.5609 -6.6802 52.4999 23.5229C54.3685 25.1699 56.4073 26.613 58.5818 27.8274C62.2308 28.4242 74.9325 32.9803 77.85 40.0098Z" fill="#80A6F7" fill-opacity="0.2"/>
<path d="M159.206 204.919V196.585L151.625 194.177C150.302 193.713 149.116 192.925 148.176 191.884L145.736 189.315C143.738 187.154 142.983 184.123 143.733 181.278C144.484 178.433 146.636 176.168 149.439 175.274L167.953 169.702C170.617 168.907 173.501 169.439 175.705 171.133L188.258 181.108L194.825 181.038L184.461 158.957C183.417 156.825 183.334 154.348 184.233 152.151C185.172 149.871 187.046 148.106 189.378 147.305L191.293 146.642C178.918 125.883 163.117 96.1686 163.117 81.4545C163.117 56.3135 184.719 35.8603 211.269 35.8603C212.003 35.8603 212.718 35.9337 213.444 35.9646C210.167 32.7443 206.716 29.706 203.107 26.8629L172.33 37.5803C167.919 41.1464 163.756 45.0084 159.869 49.1399C157.875 52.4705 150.881 55.7796 145.368 57.9551C144.94 58.1243 144.488 58.2276 144.029 58.2615C132.707 58.8044 121.435 60.1246 110.294 62.2138C109.107 66.2235 108.584 70.4004 108.747 74.5787L120.138 96.3672C120.796 96.0214 121.459 95.6492 122.129 95.2775C123.083 94.7436 124.046 94.2097 125.007 93.7192C128.37 91.5417 132.455 90.7758 136.379 91.5876C139.798 92.5815 142.421 95.3363 143.246 98.8007C143.806 102.486 142.425 106.199 139.593 108.622C136.466 112.014 133.349 115.487 130.242 119.039L120.574 130.139C120.302 130.472 119.948 130.875 119.591 131.281L118.718 132.297C117.018 134.749 116.311 137.756 116.742 140.71L117.184 143.716C117.965 149.157 116.544 154.685 113.236 159.075L104.338 171.063C103.922 171.597 103.562 172.172 103.263 172.779L93.5027 192.436C92.0602 195.364 89.0783 197.216 85.8146 197.211H76.7149C73.6927 197.205 70.9279 195.509 69.5542 192.817C67.9485 189.529 68.5288 185.593 71.0137 182.907L71.8674 182.089L63.3106 147.647L63.2647 147.437L57.1898 131.195C56.5536 129.503 56.2298 127.71 56.2333 125.903V125.098C56.2542 122.778 54.9549 120.647 52.8827 119.605L52.4426 119.403C51.3708 118.812 50.1419 118.569 48.9259 118.707L36.78 120.051C31.8387 120.611 26.9433 118.669 23.7305 114.873L16.0663 105.857C13.7651 103.126 12.4982 99.6719 12.4882 96.1003V88.1647C12.4618 84.1739 14.031 80.3383 16.8477 77.5112L26.7043 67.6151C27.0601 67.2414 27.3739 66.8308 27.6409 66.3897L30.7749 61.0936C33.4803 56.566 38.3647 53.7922 43.6388 53.7887H56.6818C60.9515 53.7808 65.0181 55.6095 67.8453 58.8089C68.9954 60.0333 70.5991 60.7299 72.2791 60.7349H73.754L76.1636 52.8387C73.4372 50.1083 71.2058 46.9259 69.5677 43.4327C66.1622 40.125 61.9275 37.7963 57.31 36.6921C55.6066 36.5035 53.0987 35.6632 45.214 29.1372C4.59503 62.9328 -10.4883 118.559 7.49254 168.245C25.4734 217.93 72.6623 251.02 125.502 250.995C142.583 251.028 159.487 247.535 175.156 240.732L159.994 208.583C159.458 207.437 159.188 206.184 159.206 204.919Z" fill="#80A6F7" fill-opacity="0.2"/>
<path d="M250.17 111.298C241.024 130.363 230.556 148.764 218.841 166.367C217.116 168.843 214.289 170.319 211.27 170.319C208.252 170.319 205.425 168.843 203.7 166.367C201.963 163.812 199.241 159.617 196.043 154.459C195.989 154.48 195.946 154.516 195.891 154.536L192.79 155.609L203.242 177.874C204.48 180.498 204.283 183.574 202.721 186.02C201.133 188.512 198.376 190.013 195.42 189.994H188.069C186.1 189.992 184.189 189.324 182.646 188.099L170.222 178.224L152.71 183.643L154.746 185.788L162.392 188.458C165.855 189.656 168.175 192.921 168.169 196.585V204.919L183.233 236.848C229.487 212.993 256.142 162.997 250.17 111.298Z" fill="#80A6F7" fill-opacity="0.2"/>
</svg>
