<svg width="258" height="320" viewBox="0 0 258 320" fill="none" xmlns="http://www.w3.org/2000/svg">
<g clip-path="url(#clip0_4049_26076)">
<path d="M334.893 -18H269.936C264.354 -18 259.829 -13.4746 259.829 -7.89258V46.957H85.1725L85.1719 -7.89258C85.1719 -13.4746 80.6464 -18 75.0645 -18H10.1074C7.42693 -18 4.85561 -16.9347 2.9608 -15.0392C1.06465 -13.1437 0 -10.5724 0 -7.89258L0.000673828 57.057L0 57.0645L0.000673828 57.0725V122.006C0.000673828 122.011 0 122.016 0 122.021C0 122.027 0.000673828 122.032 0.000673828 122.032L0.00134766 186.956C0.00134766 186.964 0 186.972 0 186.98C0 186.987 0.00134766 186.995 0.00134766 187.003L0.00202148 251.905C0.00134766 251.915 0 251.926 0 251.937C0 251.948 0.00134766 251.957 0.00202148 251.968V316.893C0.00202148 322.475 4.52745 327 10.1094 327H75.0651C75.0658 327 75.0665 327 75.0665 327C80.6485 327 85.1739 322.475 85.1739 316.893V262.044H259.828V316.867C259.828 316.876 259.827 316.884 259.827 316.893C259.827 322.475 264.352 327 269.934 327H334.893C340.475 327 345 322.475 345 316.893V-7.89258C345 -13.4746 340.475 -18 334.893 -18ZM64.957 2.21484L64.9577 46.957H20.2155L20.2148 2.21484H64.957ZM64.9577 67.1719V111.914H20.2155V67.1719H64.9577ZM64.9577 132.129V176.872H20.2162L20.2155 132.129H64.9577ZM64.9591 306.785H20.2169V262.044H64.9591V306.785ZM20.2169 241.829L20.2162 197.087H64.9584L64.9591 241.829H20.2169ZM209.248 164.52C209.168 164.605 209.086 164.688 209.003 164.769L179.647 194.125C177.752 196.021 175.181 197.087 172.501 197.087C169.82 197.087 167.249 196.021 165.354 194.125L135.993 164.764C135.979 164.75 135.965 164.736 135.95 164.723C123.868 152.639 123.868 133.025 135.923 120.97C141.763 115.131 149.527 111.915 157.785 111.915C163.008 111.915 168.035 113.202 172.5 115.625C176.967 113.202 181.992 111.915 187.216 111.915C195.475 111.915 203.239 115.131 209.079 120.97C221.074 132.967 221.132 152.454 209.248 164.52ZM324.785 306.785H280.044V262.044H324.785V306.785ZM324.785 241.829H280.044V197.087H324.785V241.829ZM324.785 176.872H280.044V132.129H324.785V176.872ZM324.785 111.914H280.044V67.1719H324.785V111.914ZM324.785 46.957H280.044V2.21484H324.785V46.957Z" fill="url(#paint0_linear_4049_26076)"/>
</g>
<defs>
<linearGradient id="paint0_linear_4049_26076" x1="172.5" y1="-18" x2="172.5" y2="327" gradientUnits="userSpaceOnUse">
<stop stop-color="#B5D5EA"/>
<stop offset="1" stop-color="#1867AC"/>
</linearGradient>
<clipPath id="clip0_4049_26076">
<rect width="345" height="345" fill="white" transform="translate(0 -18)"/>
</clipPath>
</defs>
</svg>
