<svg width="48" height="48" viewBox="0 0 48 48" fill="none" xmlns="http://www.w3.org/2000/svg">
<path d="M31.4999 24C29.5724 24 27.7086 23.1394 26.2499 21.5775C24.8315 20.0541 23.9652 18.0225 23.8124 15.8588C23.6493 13.5506 24.3533 11.4281 25.7943 9.88125C27.2352 8.33438 29.2499 7.5 31.4999 7.5C33.734 7.5 35.7543 8.34937 37.1905 9.8925C38.6408 11.4506 39.3468 13.5694 39.1836 15.8578C39.0271 18.0244 38.1618 20.055 36.7461 21.5766C35.2911 23.1394 33.4283 24 31.4999 24ZM43.859 40.5H19.1418C18.7444 40.5021 18.3518 40.4131 17.9942 40.2396C17.6367 40.0662 17.3236 39.8131 17.0793 39.4997C16.82 39.16 16.641 38.766 16.5556 38.3473C16.4702 37.9286 16.4807 37.496 16.5861 37.0819C17.3755 33.9122 19.3311 31.2834 22.2411 29.4806C24.824 27.8812 28.1118 27 31.4999 27C34.9546 27 38.1561 27.8437 40.754 29.4422C43.6705 31.2356 45.629 33.8794 46.4146 37.0875C46.5188 37.5019 46.528 37.9345 46.4417 38.353C46.3553 38.7715 46.1756 39.1651 45.9158 39.5044C45.6717 39.8163 45.3594 40.0682 45.0029 40.2408C44.6464 40.4134 44.255 40.502 43.859 40.5ZM13.7811 24.375C10.4821 24.375 7.58146 21.3075 7.31239 17.5378C7.17927 15.6066 7.78114 13.8206 8.99989 12.5109C10.2055 11.2144 11.9061 10.5 13.7811 10.5C15.6561 10.5 17.3436 11.2181 18.5558 12.5222C19.784 13.8422 20.384 15.6244 20.2433 17.5397C19.9743 21.3084 17.0746 24.375 13.7811 24.375ZM19.9368 27.3234C18.2877 26.5172 16.1474 26.1141 13.7821 26.1141C11.0202 26.1141 8.33802 26.8341 6.22864 28.1409C3.83708 29.625 2.22833 31.7859 1.57864 34.395C1.48357 34.7703 1.47457 35.1622 1.55234 35.5414C1.6301 35.9207 1.79261 36.2774 2.02771 36.585C2.25078 36.8714 2.53657 37.1028 2.86308 37.2614C3.18959 37.42 3.54814 37.5016 3.91114 37.5H14.3174C14.493 37.5 14.6631 37.4383 14.7979 37.3257C14.9328 37.2132 15.0238 37.0569 15.0552 36.8841C15.0655 36.825 15.0786 36.7659 15.0936 36.7078C15.8886 33.5147 17.7515 30.8166 20.504 28.8497C20.6052 28.7767 20.6866 28.6796 20.7409 28.5672C20.7951 28.4548 20.8204 28.3307 20.8146 28.206C20.8087 28.0814 20.7718 27.9601 20.7073 27.8533C20.6427 27.7465 20.5525 27.6575 20.4449 27.5944C20.2977 27.5081 20.129 27.4172 19.9368 27.3234Z" fill="#C6CBD9"/>
</svg>
