<svg width="48" height="48" viewBox="0 0 48 48" fill="none" xmlns="http://www.w3.org/2000/svg">
<path d="M42.7502 12C42.1397 12.0002 41.5384 12.1494 40.9986 12.4347C40.4588 12.7201 39.9969 13.1329 39.6529 13.6374C39.3089 14.1418 39.0933 14.7226 39.0248 15.3293C38.9564 15.9361 39.037 16.5503 39.2599 17.1188L31.369 25.0097C30.4893 24.6634 29.5111 24.6634 28.6315 25.0097L22.9905 19.3688C23.2139 18.8002 23.295 18.1857 23.2267 17.5786C23.1585 16.9716 22.943 16.3904 22.599 15.8856C22.2549 15.3808 21.7928 14.9677 21.2527 14.6823C20.7127 14.3968 20.1111 14.2475 19.5002 14.2475C18.8893 14.2475 18.2877 14.3968 17.7477 14.6823C17.2076 14.9677 16.7455 15.3808 16.4015 15.8856C16.0574 16.3904 15.8419 16.9716 15.7737 17.5786C15.7054 18.1857 15.7865 18.8002 16.0099 19.3688L6.61896 28.7597C5.81695 28.4451 4.93107 28.4162 4.11028 28.6779C3.28949 28.9397 2.58384 29.476 2.11199 30.1968C1.64014 30.9176 1.43086 31.7789 1.51935 32.6359C1.60784 33.4928 1.98869 34.2932 2.59787 34.9023C3.20705 35.5115 4.0074 35.8924 4.86435 35.9809C5.72131 36.0693 6.5826 35.8601 7.3034 35.3882C8.0242 34.9164 8.56056 34.2107 8.82228 33.3899C9.08401 32.5691 9.05513 31.6833 8.74052 30.8813L18.1315 21.4903C19.0111 21.8366 19.9893 21.8366 20.869 21.4903L26.5099 27.1313C26.2865 27.6998 26.2054 28.3143 26.2737 28.9214C26.3419 29.5284 26.5574 30.1096 26.9015 30.6144C27.2455 31.1192 27.7076 31.5323 28.2477 31.8177C28.7877 32.1032 29.3893 32.2525 30.0002 32.2525C30.6111 32.2525 31.2127 32.1032 31.7528 31.8177C32.2928 31.5323 32.7549 31.1192 33.099 30.6144C33.443 30.1096 33.6585 29.5284 33.7267 28.9214C33.795 28.3143 33.7139 27.6998 33.4905 27.1313L41.3815 19.2403C41.8949 19.442 42.4466 19.528 42.9971 19.492C43.5477 19.4561 44.0835 19.2991 44.5663 19.0323C45.0492 18.7654 45.4673 18.3954 45.7907 17.9484C46.1141 17.5015 46.3349 16.9887 46.4374 16.4466C46.5399 15.9045 46.5215 15.3465 46.3835 14.8123C46.2456 14.2781 45.9915 13.781 45.6393 13.3563C45.2872 12.9316 44.8457 12.5899 44.3463 12.3555C43.8469 12.121 43.3019 11.9996 42.7502 12Z" fill="#C6CBD9"/>
</svg>
