<svg width="480" height="195" viewBox="0 0 480 195" fill="none" xmlns="http://www.w3.org/2000/svg">
<path d="M0 154.891V131.787L81.7269 2.58768H99.9192V36.5972H88.3759L29.9204 129.199V130.678H141.937V154.891H0ZM89.6687 191.858V147.867L89.8534 137.332V2.58768H116.911V191.858H89.6687Z" fill="#0D6CBA"/>
<path d="M239.963 195C225.372 194.938 212.905 191.088 202.563 183.448C192.22 175.808 184.309 164.687 178.829 150.085C173.35 135.483 170.611 117.893 170.611 97.3152C170.611 76.7986 173.35 59.2701 178.829 44.7299C184.37 30.1896 192.312 19.0995 202.655 11.4597C213.059 3.81991 225.495 0 239.963 0C254.431 0 266.836 3.85071 277.179 11.5521C287.522 19.1919 295.433 30.282 300.912 44.8223C306.453 59.301 309.223 76.7986 309.223 97.3152C309.223 117.955 306.484 135.576 301.004 150.178C295.525 164.718 287.614 175.839 277.271 183.54C266.928 191.18 254.492 195 239.963 195ZM239.963 170.325C252.768 170.325 262.773 164.071 269.976 151.564C277.24 139.057 280.873 120.974 280.873 97.3152C280.873 81.6043 279.21 68.327 275.886 57.4834C272.623 46.5782 267.913 38.3223 261.757 32.7156C255.662 27.0474 248.397 24.2133 239.963 24.2133C227.219 24.2133 217.215 30.4976 209.95 43.0663C202.686 55.6351 199.023 73.718 198.961 97.3152C198.961 113.088 200.593 126.427 203.855 137.332C207.18 148.175 211.89 156.4 217.985 162.007C224.079 167.552 231.406 170.325 239.963 170.325Z" fill="#0D6CBA"/>
<path d="M305.487 126.652C295.491 129.832 283.101 130.097 278.155 129.832C278.936 131.423 296.116 176.749 298.458 183.906C300.333 189.631 298.198 191.063 296.897 191.063H288.307C287.682 188.518 290.649 186.822 292.211 186.291C284.715 160.209 267.222 139.375 259.413 132.218C254.415 131.582 230.26 136.194 218.806 138.58C217.505 138.845 213.34 141.124 207.093 148.122C200.846 155.12 195.639 153.688 193.817 152.098C199.544 146.532 211.466 134.922 213.34 133.013C215.183 131.137 236.807 123.468 247.923 119.684C247.85 119.622 247.775 119.559 247.7 119.495C240.203 113.133 231.561 85.0363 228.177 71.783C227.917 69.6625 224.429 64.4672 212.559 60.6502C200.689 56.8333 196.681 51.1079 196.16 48.7223C203.449 49.2524 218.338 49.5175 219.587 46.3367C220.837 43.1559 231.561 42.3607 236.767 42.3607L243.014 34.4087C246.659 39.9751 254.728 52.3802 257.851 57.4694C261.756 63.831 265.661 69.3974 274.25 74.9638C282.84 80.5302 309.391 79.735 334.38 79.735C354.371 79.735 367.699 82.9158 371.863 84.5062C377.33 83.1808 390.605 82.1206 399.976 88.4822C411.69 96.4341 422.622 109.157 436.678 127.447C447.923 142.078 458.023 148.387 461.667 149.712C428.869 167.207 405.442 138.58 400.757 125.856C397.009 115.678 387.742 104.121 383.577 99.6149C388.262 117.904 384.358 121.085 382.796 131.423C381.547 139.693 394.77 144.411 401.538 145.736C404.141 153.423 410.128 170.228 413.251 175.954C416.375 181.679 416.115 185.761 415.594 187.087L414.032 191.858H407.004C406.379 188.677 408.306 186.822 409.347 186.291C408.306 182.315 404.818 172.296 399.195 164.026C393.573 155.756 373.946 150.508 364.835 148.917L364.054 164.026C360.931 165.934 340.367 183.376 330.476 191.858H322.666C322.5 187.5 325.79 186.291 327.352 186.291C332.818 177.544 350.779 164.821 351.56 160.845C352.185 157.664 348.697 148.652 346.875 144.941C327.352 138.58 333.599 120.29 332.037 119.495C330.476 118.7 317.981 122.676 305.487 126.652Z" fill="#BDA964"/>
<path d="M338.063 154.891V131.787L419.79 2.58768H437.982V36.5972H426.439L367.983 129.199V130.678H480V154.891H338.063ZM427.732 191.858V147.867L427.916 137.332V2.58768H454.974V191.858H427.732Z" fill="#0D6CBA"/>
</svg>
