<svg width="116" height="116" viewBox="0 0 116 116" fill="none" xmlns="http://www.w3.org/2000/svg">
<path d="M106.937 7.25H31.6479C31.0213 7.25 30.4372 7.57568 30.1045 8.11023C29.7752 8.64478 29.7469 9.3103 30.0266 9.87317L33.2091 16.2346L26.9574 22.4863L12.3866 26.1255C11.7847 26.2777 11.3033 26.7238 11.1051 27.3114L7.342 38.6041C7.165 39.1351 7.24288 39.7192 7.5544 40.183L15.0841 51.4757C15.5938 52.2404 16.5886 52.4952 17.4028 52.0917L23.3111 49.1393L26.2635 55.0476C26.4795 55.476 26.8547 55.8052 27.3114 55.9574C27.768 56.1061 28.2672 56.0778 28.6955 55.8583L36.2252 52.0917C36.8376 51.7837 37.227 51.1571 37.227 50.4703V43.9106L46.4771 37.7474L51.1783 42.4451L45.8966 45.0859C45.2841 45.3939 44.8947 46.0205 44.8947 46.7073V50.4703C44.8947 51.2491 45.3939 51.943 46.1337 52.1908L53.2952 54.5768L49.3835 56.5486L34.9755 67.3563L16.9461 63.7526C16.2275 63.5933 15.4912 63.9083 15.0876 64.5208C14.677 65.1296 14.677 65.9261 15.0841 66.535L21.7889 76.5923L19.6047 78.7729H12.8255C11.8237 78.7729 11.013 79.5836 11.013 80.5854V95.6448C11.013 96.1262 11.2042 96.5864 11.544 96.9263L15.3106 100.689C15.8629 101.242 16.7019 101.373 17.4028 101.029L24.9325 97.2661C25.5449 96.9581 25.9343 96.3315 25.9343 95.6448V92.6287L28.6353 89.9276H30.5293L33.7932 96.4554C33.9702 96.8059 34.2534 97.0891 34.6038 97.2661L40.5086 100.219L37.5562 106.127C37.2058 106.824 37.3438 107.667 37.8961 108.219C38.243 108.566 38.7067 108.75 39.1776 108.75C39.4537 108.75 39.7298 108.686 39.9882 108.559L55.0476 101.029C55.221 100.941 55.3803 100.827 55.5184 100.689L63.0445 93.1597C63.3844 92.8198 63.5755 92.3596 63.5755 91.8782V85.1025L65.034 83.644L67.6713 88.9258C67.7598 89.0992 67.8731 89.2585 68.0112 89.3966L71.4769 92.8588L75.1019 103.748C75.3001 104.343 75.7957 104.792 76.4046 104.937C77.0171 105.093 77.6613 104.898 78.1038 104.456L85.1025 97.4573H88.1151C88.5965 97.4573 89.0567 97.2661 89.3966 96.9263L93.1596 93.1597C93.2977 93.0216 93.411 92.8623 93.4995 92.6888L96.4554 86.7841L102.364 89.7365C102.615 89.8639 102.895 89.9276 103.174 89.9276H106.937C107.939 89.9276 108.75 89.1169 108.75 88.1151V9.0625C108.75 8.06067 107.939 7.25 106.937 7.25ZM67.3173 70.2308C66.9598 70.6025 66.4854 70.7866 66.0111 70.7866C65.5579 70.7866 65.1048 70.6167 64.7544 70.2804C62.7082 68.3086 61.625 66.004 61.625 63.6216C61.625 63.041 61.6887 62.4604 61.8197 61.8905C62.0391 60.9135 62.995 60.2939 63.9862 60.524C64.9632 60.7435 65.5756 61.7135 65.3526 62.6906C65.2854 62.9985 65.25 63.3065 65.25 63.6216C65.25 65.0164 65.9296 66.3793 67.2678 67.6678C67.9899 68.3617 68.0112 69.5122 67.3173 70.2308ZM68.1847 58.3894C67.5899 58.3894 67.0058 58.0956 66.6589 57.5575C66.1173 56.715 66.3615 55.5928 67.2041 55.0511C68.2555 54.3785 69.4414 53.7697 70.7264 53.2422C71.6574 52.8599 72.7124 53.3059 73.0911 54.2334C73.4699 55.1609 73.0274 56.2194 72.0999 56.5981C71.0167 57.0406 70.029 57.5469 69.1652 58.1027C68.8608 58.2974 68.521 58.3894 68.1847 58.3894ZM79.6756 76.125C79.6119 76.125 79.5517 76.1215 79.488 76.1144C76.7409 75.8347 74.1532 75.2648 71.7955 74.4152C70.8503 74.0753 70.3618 73.0381 70.7016 72.0964C71.0415 71.1548 72.0893 70.6804 73.0203 71.0026C75.1019 71.7531 77.4029 72.2593 79.8562 72.5106C80.8509 72.6097 81.5766 73.5018 81.474 74.4966C81.3784 75.4312 80.5925 76.125 79.6756 76.125ZM83.375 61.625C82.1855 61.625 81.0704 61.0409 80.3907 60.0603C78.4685 57.2778 68.875 43.0433 68.875 36.25C68.875 28.2531 75.378 21.75 83.375 21.75C91.3719 21.75 97.875 28.2531 97.875 36.25C97.875 43.0433 88.2815 57.2778 86.3592 60.0603C85.6795 61.0409 84.5644 61.625 83.375 61.625ZM94.9969 74.3939C92.6392 75.2506 90.0479 75.8241 87.3009 76.1073C87.2407 76.1144 87.177 76.1179 87.1132 76.1179C86.1964 76.1179 85.4105 75.4241 85.3149 74.493C85.2122 73.4948 85.9344 72.6062 86.9327 72.5035C89.3824 72.2487 91.6834 71.7389 93.765 70.9884C94.696 70.6486 95.7439 71.13 96.0837 72.0752C96.4271 73.0168 95.9386 74.0541 94.9969 74.3939ZM97.5811 58.0991C96.7067 57.5398 95.7191 57.0371 94.6394 56.5946C93.7119 56.2158 93.2694 55.1573 93.6482 54.2299C94.0269 53.3024 95.0819 52.8599 96.0129 53.2386C97.2909 53.7626 98.4768 54.3679 99.5282 55.0405C100.374 55.5822 100.622 56.7008 100.084 57.5469C99.737 58.085 99.1494 58.3823 98.5546 58.3823C98.2183 58.3823 97.882 58.2903 97.5811 58.0991ZM102.031 70.245C101.677 70.5884 101.224 70.7583 100.767 70.7583C100.296 70.7583 99.822 70.5742 99.468 70.2096C98.7706 69.491 98.7848 68.344 99.5034 67.6466C100.827 66.358 101.5 65.0057 101.5 63.6216C101.5 63.2994 101.465 62.9738 101.39 62.6552C101.167 61.6781 101.776 60.7081 102.753 60.4851C103.741 60.2515 104.7 60.8745 104.923 61.848C105.058 62.4321 105.125 63.0304 105.125 63.6216C105.125 65.9863 104.056 68.2803 102.031 70.245Z" fill="#004CC4"/>
<path d="M83.375 43.5C87.3791 43.5 90.625 40.2541 90.625 36.25C90.625 32.2459 87.3791 29 83.375 29C79.3709 29 76.125 32.2459 76.125 36.25C76.125 40.2541 79.3709 43.5 83.375 43.5Z" fill="#004CC4"/>
</svg>
