<svg width="464" height="424" viewBox="0 0 464 424" fill="none" xmlns="http://www.w3.org/2000/svg">
<path d="M231.333 301.104C229.416 301.104 227.578 300.342 226.222 298.986L220.236 293C218.227 290.979 215.836 289.376 213.203 288.286C210.57 287.195 207.746 286.637 204.896 286.646H195.187C189.436 286.646 183.919 284.361 179.852 280.294C175.785 276.226 173.5 270.71 173.5 264.958V163.75C173.5 161.833 174.262 159.994 175.617 158.638C176.973 157.282 178.812 156.521 180.729 156.521H202.417V170.979H187.958V264.958C187.958 266.876 188.72 268.714 190.076 270.07C191.431 271.426 193.27 272.187 195.187 272.187H204.896C209.646 272.175 214.35 273.105 218.738 274.923C223.126 276.741 227.109 279.411 230.459 282.778L231.333 283.653L232.208 282.778C235.557 279.411 239.541 276.741 243.928 274.923C248.316 273.105 253.021 272.175 257.77 272.187H267.479C269.396 272.187 271.235 271.426 272.591 270.07C273.947 268.714 274.708 266.876 274.708 264.958V170.979H216.875V156.521H281.937C283.855 156.521 285.693 157.282 287.049 158.638C288.405 159.994 289.166 161.833 289.166 163.75V264.958C289.166 270.71 286.882 276.226 282.814 280.294C278.747 284.361 273.231 286.646 267.479 286.646H257.77C254.92 286.637 252.097 287.195 249.463 288.286C246.83 289.376 244.439 290.979 242.43 293L236.444 298.986C235.089 300.342 233.25 301.104 231.333 301.104Z" fill="#EBEDF4"/>
<path d="M253.021 48.0833H209.646C207.729 48.0833 205.89 47.3216 204.534 45.9659C203.178 44.6101 202.417 42.7714 202.417 40.8541V36.025C197.95 28.7624 195.458 20.4592 195.188 11.9374C195.188 3.26242 198.708 -16.9792 231.333 -16.9792C263.958 -16.9792 267.479 3.26242 267.479 11.9374C267.208 20.4592 264.716 28.7624 260.25 36.025V40.8541C260.25 42.7714 259.488 44.6101 258.133 45.9659C256.777 47.3216 254.938 48.0833 253.021 48.0833ZM217.128 33.6249H245.633C245.602 32.5709 245.81 31.5235 246.24 30.5609C246.671 29.5983 247.313 28.7454 248.119 28.0657C251.147 23.2158 252.837 17.6516 253.021 11.9374C253.021 7.98306 253.021 -2.52092 231.333 -2.52092C209.646 -2.52092 209.646 7.98306 209.646 11.9374C209.829 17.6516 211.52 23.2158 214.547 28.0657C215.355 28.7496 216.004 29.6011 216.45 30.5611C216.895 31.5211 217.127 32.5665 217.128 33.6249Z" fill="#EBEDF4"/>
<path d="M267.479 170.979V156.521C270.198 156.518 272.862 155.749 275.163 154.302C277.465 152.854 279.312 150.787 280.492 148.337C275.261 147.703 270.404 145.303 266.723 141.533C263.042 137.762 260.759 132.849 260.25 127.604C260.25 104.052 286.319 82.3423 302.483 71.1444C298.955 70.2334 295.326 69.7719 291.683 69.7708H270.472L272.59 71.889C273.495 72.7938 274.142 73.9224 274.468 75.1594C274.793 76.3965 274.785 77.6977 274.443 78.9303C274.101 80.163 273.438 81.2828 272.522 82.1757C271.606 83.0685 270.47 83.7022 269.229 84.0123C260.997 86.03 253.626 90.6252 248.19 97.1276C242.754 103.63 239.538 111.699 239.011 120.158C238.722 124.59 238.563 129.469 238.563 134.833V163.75H224.104V134.833C224.104 129.44 224.264 124.199 224.574 119.269C225.155 109.793 228.219 100.637 233.457 92.719C238.695 84.8012 245.923 78.4004 254.416 74.1589L247.91 67.6527C246.899 66.6417 246.211 65.3537 245.932 63.9516C245.654 62.5495 245.797 61.0962 246.344 59.7754C246.891 58.4546 247.817 57.3257 249.006 56.5313C250.194 55.737 251.592 55.3128 253.021 55.3125H291.683C300.659 55.3221 309.51 57.4131 317.541 61.4211L321.308 63.3007C322.479 63.8849 323.47 64.7762 324.174 65.8795C324.879 66.9827 325.27 68.2565 325.307 69.5649C325.344 70.8733 325.026 72.1673 324.385 73.3087C323.744 74.4501 322.805 75.3961 321.669 76.0457C308.606 83.5062 274.709 107.362 274.709 127.604C274.709 130.554 280.34 134.833 289.167 134.833C291.084 134.833 292.923 135.595 294.279 136.951C295.634 138.306 296.396 140.145 296.396 142.062C296.396 149.732 293.349 157.087 287.927 162.51C282.504 167.933 275.149 170.979 267.479 170.979Z" fill="#EBEDF4"/>
<path d="M332.542 98.6876H289.167V84.2292H324.51C322.783 77.723 318.835 77.0579 317.881 77.0001L318.084 62.5417C325.587 62.5417 339.771 68.5853 339.771 91.4584C339.771 93.3757 339.009 95.2145 337.654 96.5702C336.298 97.9259 334.459 98.6876 332.542 98.6876Z" fill="#EBEDF4"/>
<path d="M317.527 65.325L304.182 59.7585L310.775 43.9411C310.854 42.6182 308.881 40.8542 305.642 40.8542H287.15C283.911 40.8542 281.938 42.6182 281.938 43.5796L288.61 59.7585L275.265 65.325L268.672 49.5292C267.884 47.6447 267.479 45.6223 267.479 43.5796C267.836 38.7026 270.101 34.1627 273.784 30.9456C277.466 27.7284 282.269 26.0936 287.15 26.3959H305.642C310.523 26.0936 315.326 27.7284 319.009 30.9456C322.691 34.1627 324.957 38.7026 325.313 43.5796C325.31 45.6041 324.909 47.6083 324.134 49.4786L317.527 65.325Z" fill="#EBEDF4"/>
<path d="M303.625 11.9375H289.167V33.625H303.625V11.9375Z" fill="#EBEDF4"/>
<path d="M310.854 221.583C309.736 221.596 308.63 221.348 307.623 220.86L294.69 214.354H281.938V199.896H296.396C297.515 199.884 298.621 200.131 299.628 200.619L309.43 205.52L320.202 194.749C321.563 193.406 323.401 192.657 325.313 192.667H336.966L332.918 180.493C332.556 179.407 332.457 178.25 332.63 177.118C332.803 175.986 333.242 174.912 333.911 173.983C334.58 173.054 335.46 172.297 336.479 171.775C337.498 171.253 338.626 170.98 339.771 170.979C343.003 170.979 345.424 163.75 346.458 156.521H332.542C330.912 156.522 329.329 155.973 328.051 154.962C326.773 153.951 325.873 152.538 325.499 150.951C325.125 149.365 325.298 147.699 325.99 146.223C326.681 144.747 327.852 143.549 329.311 142.822C333.258 140.848 336.041 133.626 337.74 125.399L315.994 147.123C314.174 148.801 312.974 151.046 312.589 153.492C312.205 155.938 312.658 158.442 313.876 160.598C314.289 161.411 314.883 162.118 315.612 162.665C316.342 163.211 317.188 163.583 318.084 163.75C320.001 163.75 321.84 164.512 323.195 165.867C324.551 167.223 325.313 169.062 325.313 170.979C325.338 174.926 324.376 178.816 322.513 182.296C320.651 185.776 317.948 188.735 314.65 190.903C305.787 195.92 293.873 193.794 278.215 184.397L285.661 172.006C300.538 180.934 306.163 179.09 307.529 178.317C308.439 177.754 309.161 176.934 309.604 175.96C306.467 174.178 303.807 171.666 301.847 168.637C298.751 163.705 297.451 157.857 298.166 152.078C298.881 146.299 301.568 140.944 305.772 136.915L341.918 100.77C342.933 99.7665 344.222 99.0862 345.622 98.8142C347.023 98.5422 348.472 98.6908 349.789 99.2411C351.105 99.7914 352.229 100.719 353.019 101.907C353.81 103.095 354.231 104.49 354.229 105.917C354.346 118.272 352.119 130.537 347.665 142.063H354.229C356.147 142.063 357.985 142.824 359.341 144.18C360.697 145.536 361.459 147.374 361.459 149.292C361.459 162.304 358.01 176.958 348.93 182.821L353.854 197.611C354.215 198.698 354.314 199.854 354.141 200.986C353.969 202.118 353.53 203.192 352.86 204.121C352.191 205.05 351.311 205.807 350.292 206.329C349.273 206.851 348.145 207.124 347 207.125H328.306L315.965 219.465C314.61 220.821 312.772 221.583 310.854 221.583Z" fill="#EBEDF4"/>
<path d="M339.771 272.188C338.652 272.2 337.546 271.952 336.539 271.465C331.797 269.086 310.76 257.896 305.056 243.271H281.938V228.813H310.854C312.771 228.813 314.61 229.574 315.966 230.93C317.322 232.286 318.083 234.124 318.083 236.042C318.083 241.276 327.481 249.257 336.612 254.895C338.84 243.934 339.899 232.768 339.771 221.583C339.752 219.94 340.294 218.34 341.307 217.046C342.32 215.752 343.744 214.841 345.344 214.465C346.944 214.089 348.624 214.269 350.108 214.975C351.591 215.682 352.79 216.873 353.506 218.352C356.34 224.027 368.174 229.456 379.64 233.034C375.189 225.458 369.804 218.471 363.612 212.236C362.496 211.118 361.777 209.665 361.565 208.1C361.352 206.535 361.659 204.943 362.437 203.568C363.215 202.193 364.422 201.111 365.873 200.487C367.324 199.863 368.94 199.732 370.473 200.113C380.826 202.69 391.331 204.607 401.927 205.853C395.062 200.516 387.703 195.846 379.95 191.908C378.494 191.182 377.326 189.987 376.633 188.514C375.941 187.042 375.765 185.38 376.135 183.795C376.504 182.211 377.397 180.798 378.67 179.784C379.942 178.77 381.519 178.215 383.146 178.208C399.833 178.409 416.159 173.35 429.81 163.75H390.375C388.564 163.745 386.821 163.061 385.49 161.832C384.16 160.604 383.339 158.921 383.19 157.116C383.041 155.311 383.575 153.516 384.686 152.086C385.796 150.656 387.404 149.695 389.189 149.393C408.274 145.476 425.347 134.908 437.364 119.573L392.681 134.457C390.982 135.015 389.137 134.922 387.502 134.199C385.868 133.475 384.559 132.171 383.829 130.539C383.099 128.907 383 127.062 383.551 125.361C384.102 123.661 385.263 122.224 386.811 121.329C405.022 112.07 419.845 97.2976 429.166 79.1182L401.638 97.4731C400.219 98.4352 398.505 98.862 396.801 98.6773C395.097 98.4926 393.514 97.7084 392.334 96.4647C391.155 95.221 390.456 93.5986 390.362 91.8871C390.268 90.1757 390.785 88.4865 391.821 87.1209C395.877 81.8977 398.859 75.9234 400.596 69.5424C402.333 63.1614 402.79 56.4998 401.941 49.9413L368.615 95.7092L356.926 87.2077L398.985 29.3743C399.722 28.3767 400.698 27.5808 401.824 27.0602C402.95 26.5396 404.188 26.3112 405.426 26.3959C406.665 26.4975 407.856 26.9167 408.886 27.6132C409.915 28.3097 410.748 29.2598 411.303 30.3719C416.968 43.1514 418.323 57.4263 415.164 71.0432L436.967 56.5054C438.057 55.778 439.324 55.3606 440.634 55.298C441.943 55.2354 443.244 55.5299 444.399 56.1499C445.554 56.77 446.518 57.6923 447.189 58.8181C447.86 59.944 448.212 61.2311 448.208 62.5417C446.697 79.5787 439.282 95.5526 427.243 107.702L453.182 99.0274C454.542 98.5673 456.009 98.5229 457.395 98.8999C458.781 99.2768 460.023 100.058 460.963 101.144C461.903 102.23 462.498 103.571 462.673 104.997C462.848 106.422 462.594 107.868 461.943 109.148C453.33 125.078 441.168 138.814 426.398 149.292H448.208C449.551 149.292 450.867 149.666 452.009 150.371C453.151 151.077 454.074 152.087 454.674 153.288C455.274 154.489 455.529 155.833 455.408 157.17C455.287 158.507 454.797 159.784 453.991 160.858C441.42 175.786 424.25 186.12 405.173 190.238C413.553 195.533 420.608 202.677 425.798 211.123C426.35 212.228 426.61 213.456 426.552 214.69C426.495 215.925 426.122 217.123 425.47 218.172C424.817 219.222 423.907 220.086 422.825 220.683C421.743 221.28 420.527 221.59 419.291 221.583C408.624 221.335 397.99 220.276 387.483 218.417C393.141 225.577 396.65 234.196 397.604 243.271C397.604 244.343 397.366 245.402 396.906 246.37C396.447 247.339 395.778 248.193 394.947 248.872C394.117 249.55 393.146 250.035 392.105 250.291C391.064 250.548 389.979 250.57 388.929 250.355C376.579 247.963 364.676 243.669 353.643 237.625C352.747 250.081 350.455 264.467 344.853 270.069C343.505 271.418 341.678 272.18 339.771 272.188Z" fill="#EBEDF4"/>
<path d="M375.917 351.708C368.768 351.708 361.78 349.589 355.836 345.617C349.892 341.645 345.259 336 342.523 329.395C339.787 322.79 339.071 315.522 340.466 308.511C341.861 301.499 345.303 295.059 350.358 290.004C355.413 284.949 361.854 281.506 368.866 280.111C375.877 278.717 383.145 279.432 389.75 282.168C396.354 284.904 402 289.537 405.971 295.481C409.943 301.425 412.063 308.414 412.063 315.563C412.052 325.146 408.24 334.333 401.464 341.109C394.687 347.885 385.5 351.697 375.917 351.708ZM375.917 293.875C371.628 293.875 367.435 295.147 363.868 297.53C360.302 299.913 357.522 303.3 355.881 307.263C354.239 311.226 353.81 315.587 354.647 319.794C355.483 324.001 357.549 327.865 360.582 330.898C363.615 333.931 367.479 335.997 371.686 336.833C375.893 337.67 380.254 337.241 384.217 335.599C388.18 333.958 391.567 331.178 393.95 327.612C396.333 324.045 397.605 319.852 397.605 315.563C397.605 309.811 395.32 304.294 391.253 300.227C387.185 296.16 381.669 293.875 375.917 293.875Z" fill="#EBEDF4"/>
<path d="M383.146 257.729H368.688V286.646H383.146V257.729Z" fill="#EBEDF4"/>
<path d="M390.376 264.958H361.459V279.417H390.376V264.958Z" fill="#EBEDF4"/>
<path d="M404.833 308.333H347V322.792H404.833V308.333Z" fill="#EBEDF4"/>
<path d="M361.458 366.167C360.756 366.166 360.057 366.063 359.383 365.863L287.092 344.176C285.602 343.729 284.296 342.814 283.367 341.567C282.439 340.319 281.937 338.805 281.938 337.25V315.562H296.396V331.872L359.398 350.769L370.805 339.368L381.028 349.59L366.569 364.049C365.214 365.404 363.375 366.166 361.458 366.167Z" fill="#EBEDF4"/>
<path d="M195.188 170.979C187.519 170.979 180.164 167.933 174.741 162.51C169.318 157.087 166.271 149.732 166.271 142.062C166.271 140.145 167.033 138.306 168.389 136.951C169.744 135.595 171.583 134.833 173.5 134.833C182.327 134.833 187.959 130.554 187.959 127.604C187.959 107.319 154.061 83.5062 140.969 76.0457C139.833 75.3961 138.894 74.4501 138.254 73.3087C137.613 72.1673 137.294 70.8733 137.331 69.5649C137.368 68.2565 137.76 66.9827 138.464 65.8795C139.169 64.7762 140.159 63.8849 141.331 63.3007L145.104 61.4211C153.142 57.4081 162.001 55.3169 170.985 55.3125H209.646C211.076 55.3128 212.473 55.737 213.662 56.5313C214.85 57.3257 215.777 58.4546 216.324 59.7754C216.871 61.0962 217.014 62.5495 216.735 63.9516C216.456 65.3537 215.768 66.6417 214.757 67.6527L208.251 74.1589C216.744 78.4022 223.973 84.8044 229.211 92.7234C234.448 100.642 237.512 109.799 238.093 119.276C238.404 124.199 238.563 129.44 238.563 134.833V163.75H224.104V134.833C224.104 129.469 223.945 124.59 223.656 120.187C223.129 111.728 219.914 103.659 214.478 97.1565C209.042 90.6541 201.67 86.0589 193.438 84.0412C192.197 83.7312 191.061 83.0974 190.145 82.2046C189.229 81.3118 188.566 80.1919 188.224 78.9593C187.883 77.7266 187.874 76.4254 188.199 75.1883C188.525 73.9513 189.173 72.8227 190.077 71.9179L192.195 69.7708H170.985C167.341 69.7719 163.712 70.2334 160.184 71.1444C176.349 82.3423 202.417 104.052 202.417 127.604C201.909 132.849 199.625 137.762 195.944 141.533C192.264 145.303 187.406 147.703 182.175 148.337C183.355 150.787 185.202 152.854 187.504 154.302C189.806 155.749 192.469 156.518 195.188 156.521V170.979Z" fill="#EBEDF4"/>
<path d="M173.501 98.6876H130.126C128.208 98.6876 126.37 97.9259 125.014 96.5702C123.658 95.2145 122.896 93.3757 122.896 91.4584C122.896 68.5853 137.08 62.5417 144.584 62.5417L144.786 77.0001C143.832 77.0651 139.885 77.723 138.157 84.2292H173.501V98.6876Z" fill="#EBEDF4"/>
<path d="M187.402 65.325L174.057 59.7585L180.65 43.9411C180.729 42.6182 178.756 40.8542 175.517 40.8542H157.025C153.786 40.8542 151.813 42.6182 151.813 43.5796L158.485 59.7585L145.14 65.325L138.547 49.5292C137.759 47.6447 137.354 45.6223 137.354 43.5796C137.711 38.7026 139.976 34.1627 143.659 30.9456C147.341 27.7284 152.144 26.0936 157.025 26.3959H175.517C180.398 26.0936 185.201 27.7284 188.884 30.9456C192.566 34.1627 194.832 38.7026 195.188 43.5796C195.185 45.6041 194.784 47.6083 194.009 49.4786L187.402 65.325Z" fill="#EBEDF4"/>
<path d="M173.5 11.9375H159.042V33.625H173.5V11.9375Z" fill="#EBEDF4"/>
<path d="M151.813 221.583C149.896 221.583 148.057 220.821 146.702 219.465L134.362 207.125H115.667C114.522 207.124 113.394 206.851 112.375 206.329C111.356 205.807 110.476 205.05 109.807 204.121C109.138 203.192 108.699 202.118 108.526 200.986C108.354 199.854 108.452 198.698 108.814 197.611L113.737 182.82C104.657 176.958 101.209 162.304 101.209 149.292C101.209 147.374 101.971 145.536 103.326 144.18C104.682 142.824 106.521 142.062 108.438 142.062H115.002C110.549 130.537 108.321 118.272 108.438 105.917C108.438 104.487 108.863 103.09 109.657 101.901C110.451 100.713 111.58 99.7862 112.901 99.2392C114.222 98.6921 115.675 98.549 117.077 98.8278C118.479 99.1066 119.767 99.7949 120.778 100.806L156.924 136.951C161.13 140.979 163.817 146.334 164.534 152.113C165.25 157.891 163.952 163.74 160.857 168.673C158.891 171.697 156.232 174.207 153.1 175.996C153.551 176.979 154.283 177.806 155.204 178.375C156.584 179.141 162.223 180.934 177.036 172.042L184.482 184.433C168.823 193.83 156.917 195.949 148.047 190.939C144.738 188.771 142.026 185.808 140.158 182.321C138.29 178.834 137.326 174.935 137.355 170.979C137.355 169.062 138.116 167.223 139.472 165.867C140.828 164.512 142.667 163.75 144.584 163.75C145.481 163.584 146.328 163.216 147.059 162.672C147.791 162.128 148.389 161.423 148.806 160.612C150.018 158.455 150.466 155.952 150.079 153.508C149.692 151.064 148.492 148.822 146.673 147.145L124.928 125.435C126.627 133.662 129.41 140.884 133.357 142.858C134.796 143.595 135.947 144.793 136.625 146.261C137.302 147.729 137.469 149.382 137.096 150.956C136.724 152.529 135.835 153.933 134.572 154.942C133.308 155.95 131.743 156.506 130.126 156.521H116.209C117.229 163.829 119.629 170.979 122.896 170.979C124.041 170.98 125.17 171.253 126.188 171.775C127.207 172.297 128.087 173.054 128.757 173.983C129.426 174.912 129.865 175.986 130.037 177.118C130.21 178.25 130.111 179.406 129.75 180.493L125.701 192.667H137.355C139.272 192.667 141.11 193.429 142.466 194.785L153.237 205.556L163.04 200.655C164.044 200.155 165.15 199.895 166.271 199.896H180.73V214.354H167.977L155.045 220.86C154.038 221.348 152.932 221.596 151.813 221.583Z" fill="#EBEDF4"/>
<path d="M122.896 272.188C120.979 272.187 119.141 271.425 117.785 270.069C112.183 264.467 109.891 250.081 108.995 237.625C97.9714 243.666 86.0778 247.96 73.7381 250.355C72.6877 250.57 71.6027 250.548 70.5618 250.291C69.5208 250.035 68.55 249.55 67.7196 248.872C66.8892 248.193 66.2201 247.339 65.7606 246.37C65.3012 245.402 65.0629 244.343 65.0631 243.271C66.017 234.195 69.5265 225.577 75.184 218.417C64.6767 220.276 54.0433 221.335 43.3757 221.583C42.1433 221.584 40.9312 221.269 39.8546 220.67C38.7779 220.07 37.8724 219.205 37.2242 218.157C36.5759 217.109 36.2063 215.912 36.1506 214.681C36.0948 213.45 36.3547 212.225 36.9056 211.123C42.0849 202.681 49.1276 195.537 57.4942 190.238C38.4175 186.12 21.2471 175.786 8.67575 160.858C7.87022 159.784 7.37969 158.507 7.25913 157.17C7.13856 155.833 7.39271 154.489 7.99312 153.288C8.59352 152.087 9.51644 151.077 10.6585 150.371C11.8005 149.666 13.1165 149.292 14.4591 149.292H36.2694C21.5123 138.809 9.3628 125.074 0.759822 109.148C0.122064 107.869 -0.12235 106.43 0.0574553 105.012C0.237261 103.595 0.83322 102.262 1.77004 101.183C2.70686 100.104 3.94252 99.3264 5.3209 98.9491C6.69928 98.5719 8.15854 98.6117 9.51433 99.0634L35.4525 107.738C23.3958 95.5836 15.9693 79.5952 14.4591 62.5417C14.4589 61.2329 14.814 59.9486 15.4865 58.8258C16.159 57.703 17.1238 56.7839 18.2778 56.1665C19.4317 55.549 20.7317 55.2564 22.039 55.3199C23.3462 55.3834 24.6117 55.8006 25.7004 56.527L47.5035 71.0649C44.3445 57.4479 45.6995 43.173 51.3639 30.3936C51.9205 29.2882 52.7515 28.3443 53.7774 27.6522C54.8033 26.96 55.9898 26.5428 57.2231 26.4405C58.4564 26.3382 59.6953 26.5543 60.8213 27.0679C61.9472 27.5816 62.9224 28.3757 63.6535 29.3743L105.72 87.2076L94.0593 95.7235L60.7257 49.8906C59.863 56.4573 60.3134 63.13 62.0508 69.5211C63.7882 75.9123 66.778 81.8947 70.8465 87.1208C71.8708 88.4855 72.3793 90.1685 72.2822 91.872C72.1851 93.5755 71.4885 95.1898 70.3158 96.4292C69.143 97.6686 67.5697 98.4532 65.8741 98.6442C64.1786 98.8353 62.4701 98.4204 61.051 97.473L33.4717 79.0892C42.8054 97.2941 57.6592 112.08 75.9069 121.329C77.4547 122.224 78.6162 123.66 79.1668 125.361C79.7175 127.062 79.6184 128.907 78.8887 130.539C78.1589 132.171 76.8502 133.475 75.2154 134.199C73.5806 134.922 71.7356 135.014 70.0368 134.457L25.3028 119.573C37.3145 134.903 54.3793 145.471 73.4562 149.393C75.24 149.694 76.846 150.654 77.9569 152.082C79.0679 153.509 79.6031 155.302 79.457 157.105C79.3108 158.908 78.4938 160.591 77.1674 161.821C75.8409 163.052 74.1014 163.74 72.2923 163.75H32.8573C46.5074 173.351 62.8343 178.409 79.5215 178.208C81.1513 178.207 82.7339 178.756 84.0123 179.767C85.2908 180.778 86.1901 182.191 86.5643 183.778C86.9385 185.364 86.7656 187.03 86.0737 188.506C85.3819 189.982 84.2116 191.181 82.7529 191.908C75.0058 195.845 67.6518 200.512 60.7907 205.845C71.3822 204.607 81.8835 202.692 92.2303 200.113C93.7634 199.731 95.3791 199.863 96.8304 200.487C98.2817 201.111 99.4886 202.193 100.267 203.568C101.045 204.943 101.351 206.535 101.139 208.1C100.926 209.665 100.207 211.118 99.0908 212.236C92.9037 218.468 87.5218 225.45 83.071 233.02C94.5364 229.405 106.378 224.005 109.197 218.352C109.924 216.893 111.123 215.723 112.599 215.031C114.074 214.339 115.741 214.166 117.327 214.54C118.913 214.915 120.327 215.814 121.338 217.092C122.349 218.371 122.898 219.953 122.896 221.583C122.766 232.768 123.825 243.935 126.056 254.895C135.186 249.249 144.584 241.276 144.584 236.042C144.584 234.124 145.345 232.286 146.701 230.93C148.057 229.574 149.896 228.812 151.813 228.812H180.73V243.271H157.596C151.893 257.859 130.848 269.05 126.113 271.465C125.111 271.95 124.01 272.198 122.896 272.188Z" fill="#EBEDF4"/>
<path d="M231.333 337.25C229.416 337.25 227.578 336.488 226.222 335.132C213.189 321.585 201.934 306.434 192.73 290.044C194.274 297.778 197.213 305.166 201.405 311.847C202.233 313.229 202.577 314.847 202.38 316.447C202.184 318.046 201.459 319.534 200.32 320.674C197.945 323.571 194.899 325.844 191.445 327.295C187.992 328.747 184.236 329.332 180.505 329.002C177.168 328.437 174.068 326.912 171.584 324.613L162.295 329.262C160.937 329.939 159.401 330.172 157.904 329.929C156.407 329.685 155.024 328.976 153.952 327.903L148.718 322.669C140.371 321.954 132.382 318.952 125.629 313.994C124.551 313.138 123.739 311.992 123.29 310.691C122.841 309.39 122.773 307.988 123.093 306.649C123.414 305.311 124.109 304.091 125.099 303.135C126.089 302.178 127.331 301.524 128.679 301.249C132.393 296.392 135.321 290.981 137.354 285.215C138.467 263.563 164.919 257.744 180.729 257.744V272.202C180.44 272.202 151.813 272.679 151.813 286.66C151.813 287.529 151.659 288.391 151.357 289.205C149.18 295.392 146.267 301.294 142.682 306.786C145.621 307.797 148.705 308.319 151.813 308.333C153.73 308.334 155.568 309.096 156.924 310.452L160.466 313.994L170.269 309.092C171.118 308.668 172.043 308.415 172.991 308.347C173.938 308.28 174.889 308.401 175.79 308.701C176.691 309.002 177.524 309.478 178.241 310.1C178.959 310.723 179.546 311.481 179.97 312.331C180.172 312.7 181.416 314.5 182.862 314.738C183.973 314.783 185.066 314.449 185.963 313.791C181.307 304.777 175.061 289.393 180.505 279.778C182.005 277.274 184.174 275.237 186.767 273.896C189.361 272.555 192.276 271.963 195.187 272.188C196.531 272.187 197.848 272.561 198.991 273.267C200.134 273.973 201.057 274.984 201.658 276.185C209.823 291.739 219.783 306.282 231.333 319.517C242.871 306.28 252.818 291.737 260.973 276.185C261.576 274.978 262.505 273.964 263.655 273.257C264.805 272.551 266.129 272.18 267.479 272.188C270.395 271.958 273.317 272.547 275.916 273.888C278.515 275.229 280.688 277.269 282.19 279.778C287.634 289.386 281.395 304.762 276.732 313.755C277.641 314.416 278.747 314.75 279.87 314.702C281.265 314.478 282.573 312.534 282.696 312.302C283.12 311.452 283.708 310.694 284.425 310.071C285.142 309.449 285.975 308.973 286.876 308.672C287.777 308.372 288.728 308.251 289.676 308.319C290.623 308.386 291.548 308.639 292.398 309.064L302.201 313.965L305.743 310.423C307.103 309.077 308.941 308.326 310.854 308.333C313.955 308.312 317.031 307.784 319.963 306.772C316.378 301.28 313.465 295.377 311.288 289.191C310.993 288.375 310.846 287.513 310.854 286.646C310.854 272.809 282.226 272.188 281.937 272.188V257.729C297.704 257.729 324.156 263.563 325.276 285.2C327.316 290.966 330.242 296.378 333.951 301.242C335.3 301.513 336.543 302.163 337.535 303.116C338.527 304.069 339.227 305.285 339.551 306.622C339.876 307.958 339.813 309.36 339.369 310.662C338.925 311.964 338.119 313.112 337.045 313.972C330.292 318.93 322.303 321.932 313.955 322.647L308.721 327.881C307.649 328.954 306.267 329.663 304.769 329.907C303.272 330.151 301.736 329.918 300.379 329.24L291.089 324.592C288.605 326.889 285.505 328.414 282.169 328.98C278.437 329.312 274.681 328.727 271.227 327.275C267.774 325.824 264.727 323.55 262.354 320.652C261.215 319.512 260.49 318.024 260.293 316.425C260.097 314.826 260.44 313.207 261.269 311.825C265.432 305.179 268.347 297.83 269.872 290.138C260.675 306.492 249.438 321.611 236.43 335.132C235.078 336.484 233.245 337.246 231.333 337.25Z" fill="#EBEDF4"/>
<path d="M327.621 323.176L323.051 336.886L366.401 351.336L370.971 337.626L327.621 323.176Z" fill="#EBEDF4"/>
<path d="M103.283 365.863L99.1338 352.012L166.271 331.872V315.562H180.729V337.25C180.729 338.805 180.228 340.319 179.299 341.567C178.371 342.814 177.065 343.729 175.575 344.176L103.283 365.863Z" fill="#EBEDF4"/>
<path d="M135.075 323.154L91.7012 337.627L96.2753 351.336L139.649 336.863L135.075 323.154Z" fill="#EBEDF4"/>
<path d="M71.4313 290.453L58.7012 297.308L109.306 391.288L122.036 384.433L71.4313 290.453Z" fill="#EBEDF4"/>
<path d="M65.0628 301.104H43.3753C42.1854 301.104 41.0139 300.811 39.9647 300.25C38.9155 299.689 38.021 298.877 37.3607 297.887L22.9023 276.2L34.9317 268.175L47.2429 286.646H60.5952L64.4844 278.86L58.2095 260.014L71.9449 255.445L79.1741 277.132C79.7823 278.949 79.6445 280.933 78.7909 282.648L71.5618 297.107C70.9591 298.313 70.0311 299.326 68.8827 300.033C67.7342 300.739 66.4111 301.11 65.0628 301.104Z" fill="#EBEDF4"/>
<path d="M231.334 424C230.144 424 228.973 423.707 227.923 423.145C226.874 422.584 225.98 421.773 225.319 420.783L210.861 399.096C210.071 397.906 209.649 396.511 209.646 395.083C209.646 380.343 216.637 324.238 216.933 321.895L231.276 323.688C231.204 324.238 224.734 376.222 224.148 392.958L231.334 403.758L238.52 392.98C237.934 376.237 231.464 324.259 231.392 323.71L245.734 321.917C246.031 324.274 253.021 380.343 253.021 395.083C253.019 396.511 252.597 397.906 251.807 399.096L237.349 420.783C236.688 421.773 235.794 422.584 234.745 423.145C233.695 423.707 232.524 424 231.334 424Z" fill="#EBEDF4"/>
<path d="M260.25 416.771C259.045 416.771 257.86 416.47 256.801 415.896C255.743 415.321 254.844 414.492 254.188 413.482C253.531 412.472 253.138 411.314 253.042 410.114C252.947 408.913 253.153 407.707 253.642 406.607C256.074 401.311 258.069 395.825 259.606 390.204L255.139 385.736C254.331 384.927 253.727 383.937 253.376 382.848C253.025 381.76 252.937 380.603 253.12 379.474C253.302 378.345 253.75 377.276 254.427 376.354C255.103 375.431 255.989 374.683 257.011 374.169C257.011 374.097 257.011 374.01 257.011 373.924C250.436 364.929 242.652 356.884 233.878 350.017L243.204 338.956C261.963 354.788 271.477 366.376 271.477 373.403C271.518 375.801 271.098 378.184 270.241 380.423L272.568 382.75C273.335 383.516 273.919 384.445 274.278 385.467C274.637 386.49 274.762 387.58 274.643 388.657C274.002 392.776 272.949 396.821 271.498 400.729C276.242 399.783 280.543 397.302 283.736 393.668C286.929 390.035 288.838 385.451 289.166 380.625C289.166 371.227 254.785 337.25 238.562 337.25V322.792C260.452 322.792 303.625 361.171 303.625 380.625C303.625 401.235 284.981 416.771 260.25 416.771Z" fill="#EBEDF4"/>
<path d="M202.417 416.771C177.686 416.771 159.042 401.235 159.042 380.625C159.042 361.171 202.215 322.792 224.104 322.792V337.25C207.882 337.25 173.5 371.227 173.5 380.625C173.83 385.447 175.735 390.027 178.924 393.658C182.113 397.29 186.408 399.772 191.147 400.722C189.696 396.814 188.643 392.769 188.002 388.649C187.883 387.572 188.008 386.482 188.367 385.46C188.726 384.438 189.31 383.509 190.077 382.743L192.405 380.415C191.547 378.176 191.127 375.793 191.168 373.396C191.168 366.369 200.682 354.781 219.442 338.949L228.767 350.01C219.993 356.877 212.209 364.922 205.634 373.916C205.634 374.003 205.634 374.09 205.634 374.162C206.656 374.676 207.542 375.424 208.218 376.346C208.895 377.269 209.343 378.338 209.525 379.467C209.708 380.596 209.621 381.752 209.269 382.841C208.918 383.93 208.314 384.919 207.506 385.729L203.039 390.197C204.575 395.818 206.57 401.304 209.003 406.599C209.493 407.699 209.7 408.903 209.607 410.103C209.513 411.303 209.122 412.461 208.468 413.471C207.813 414.481 206.917 415.312 205.861 415.888C204.804 416.465 203.62 416.768 202.417 416.771Z" fill="#EBEDF4"/>
</svg>
