<svg width="188" height="126" viewBox="0 0 188 126" fill="none" xmlns="http://www.w3.org/2000/svg">
<path d="M172.08 81.4545C172.08 93.6802 187.164 122.568 200.318 144.355C200.635 144.725 200.889 145.144 201.07 145.596C204.712 151.587 208.19 157.026 211.111 161.324C224.639 141.653 236.265 120.739 245.833 98.866L245.838 98.835L245.867 98.7841C248.365 93.308 249.917 87.4486 250.458 81.4545C250.458 61.2547 232.878 44.8242 211.27 44.8242C189.661 44.8242 172.08 61.2547 172.08 81.4545ZM239.043 81.9095C239.041 97.2473 226.606 109.68 211.268 109.679C195.93 109.678 183.497 97.2438 183.498 81.906C183.498 66.5683 195.931 54.1345 211.269 54.134C226.602 54.1494 239.028 66.5762 239.043 81.9095Z" fill="#F1F1F2" fill-opacity="0.8"/>
<path d="M77.8501 40.0095C79.4782 43.1066 81.6447 45.8884 84.2494 48.225C85.5352 49.3916 86.0337 51.1944 85.5297 52.856L81.3608 66.5252C80.7855 68.4108 79.0451 69.6991 77.0737 69.6986H72.2786C68.0583 69.6847 64.0352 67.9093 61.1806 64.8008C60.0554 63.4895 58.4093 62.74 56.6814 62.7525H43.6383C41.5262 62.732 39.5633 63.8402 38.489 65.659L35.3026 71.0424C34.6634 72.0917 33.9075 73.0652 33.0482 73.9444L23.1936 83.8404C22.0595 84.992 21.4328 86.5488 21.4517 88.165V96.1005C21.4597 97.557 21.9776 98.9646 22.9157 100.079L30.5579 109.065C31.8392 110.584 33.7937 111.364 35.7686 111.144L47.9409 109.796C50.8379 109.471 53.7664 110.01 56.3575 111.346L56.7512 111.521C61.936 114.054 65.2162 119.328 65.1963 125.098V125.903C65.1928 126.623 65.3185 127.338 65.5685 128.013L71.7682 144.593C71.8849 144.933 71.9752 145.281 72.0396 145.635H72.0376L80.6164 180.129C81.3444 183.039 80.5006 186.117 78.391 188.249H85.8141L95.2002 168.868C95.7476 167.735 96.4122 166.662 97.1831 165.668L106.059 153.71C107.941 151.215 108.751 148.073 108.309 144.978L107.867 141.976C107.108 136.627 108.457 131.192 111.629 126.819C112.145 126.175 112.5 125.773 112.857 125.366L123.482 113.154C126.657 109.521 129.822 106.003 133.03 102.519C133.667 101.958 134.168 101.259 134.494 100.475C134.256 100.343 134.005 100.236 133.746 100.156C132.15 100.241 130.605 100.743 129.266 101.613C128.22 102.147 127.351 102.633 126.487 103.115C125.421 103.705 124.361 104.292 123.316 104.817C119.467 106.775 114.758 105.305 112.708 101.504L100.306 77.7809C99.9858 77.1697 99.8112 76.4926 99.7962 75.8025C99.632 68.0161 100.407 58.0627 105.046 54.8548C108.828 52.2417 127.448 50.4385 142.705 49.3707C146.131 48.1183 149.373 46.4103 152.344 44.2937C156.857 39.1543 161.827 34.434 167.192 30.1913C167.609 29.841 168.087 29.5696 168.602 29.3905L194.191 20.4809C150.872 -7.88945 94.561 -6.68044 52.5 23.5226C54.3686 25.1697 56.4074 26.6127 58.5819 27.8272C62.2309 28.424 74.9326 32.98 77.8501 40.0095Z" fill="#F1F1F2" fill-opacity="0.8"/>
<path d="M159.206 204.918V196.584L151.625 194.177C150.302 193.712 149.116 192.924 148.176 191.884L145.736 189.314C143.738 187.154 142.983 184.123 143.733 181.278C144.484 178.432 146.636 176.168 149.439 175.273L167.953 169.701C170.617 168.906 173.501 169.438 175.705 171.132L188.258 181.107L194.825 181.038L184.461 158.956C183.417 156.824 183.334 154.347 184.233 152.15C185.172 149.87 187.046 148.105 189.378 147.305L191.293 146.642C178.918 125.882 163.117 96.168 163.117 81.4539C163.117 56.3129 184.719 35.8597 211.269 35.8597C212.003 35.8597 212.718 35.933 213.444 35.964C210.167 32.7436 206.716 29.7054 203.107 26.8623L172.33 37.5796C167.919 41.1458 163.756 45.0078 159.869 49.1392C157.875 52.4699 150.881 55.779 145.368 57.9545C144.94 58.1237 144.488 58.2269 144.029 58.2609C132.707 58.8038 121.435 60.124 110.294 62.2132C109.107 66.2229 108.584 70.3998 108.747 74.5781L120.138 96.3666C120.796 96.0208 121.459 95.6486 122.129 95.2768C123.083 94.7429 124.046 94.209 125.007 93.7186C128.37 91.5411 132.455 90.7751 136.379 91.587C139.798 92.5809 142.421 95.3357 143.246 98.8C143.806 102.485 142.425 106.198 139.593 108.622C136.466 112.014 133.349 115.486 130.242 119.039L120.574 130.139C120.302 130.472 119.948 130.874 119.591 131.281L118.718 132.296C117.018 134.749 116.311 137.756 116.742 140.709L117.184 143.716C117.965 149.156 116.544 154.685 113.236 159.074L104.338 171.063C103.922 171.597 103.562 172.171 103.263 172.779L93.5027 192.435C92.0602 195.363 89.0783 197.216 85.8146 197.211H76.7149C73.6927 197.205 70.9279 195.508 69.5542 192.816C67.9485 189.528 68.5288 185.592 71.0137 182.907L71.8674 182.088L63.3106 147.647L63.2647 147.436L57.1898 131.194C56.5536 129.503 56.2298 127.71 56.2333 125.903V125.097C56.2542 122.777 54.9549 120.647 52.8827 119.604L52.4426 119.402C51.3708 118.811 50.1419 118.568 48.9259 118.706L36.78 120.05C31.8387 120.61 26.9433 118.668 23.7305 114.872L16.0663 105.856C13.7651 103.125 12.4982 99.6712 12.4882 96.0996V88.164C12.4618 84.1733 14.031 80.3377 16.8477 77.5106L26.7043 67.6145C27.0601 67.2408 27.3739 66.8302 27.6409 66.3891L30.7749 61.093C33.4803 56.5654 38.3647 53.7916 43.6388 53.7881H56.6818C60.9515 53.7801 65.0181 55.6089 67.8453 58.8082C68.9954 60.0327 70.5991 60.7293 72.2791 60.7343H73.754L76.1636 52.8381C73.4372 50.1077 71.2058 46.9253 69.5677 43.432C66.1622 40.1244 61.9275 37.7957 57.31 36.6915C55.6066 36.5029 53.0987 35.6626 45.214 29.1366C4.59503 62.9322 -10.4883 118.558 7.49254 168.244C25.4734 217.93 72.6623 251.019 125.502 250.994C142.583 251.028 159.487 247.534 175.156 240.731L159.994 208.582C159.458 207.436 159.188 206.183 159.206 204.918Z" fill="#F1F1F2" fill-opacity="0.8"/>
<path d="M250.17 111.298C241.024 130.362 230.556 148.763 218.841 166.366C217.116 168.843 214.288 170.319 211.27 170.319C208.252 170.319 205.425 168.843 203.699 166.366C201.963 163.812 199.241 159.616 196.043 154.458C195.989 154.479 195.945 154.516 195.891 154.536L192.79 155.608L203.242 177.874C204.48 180.498 204.283 183.574 202.721 186.019C201.133 188.511 198.375 190.012 195.42 189.994H188.069C186.1 189.991 184.189 189.323 182.646 188.099L170.222 178.224L152.71 183.643L154.746 185.787L162.392 188.457C165.855 189.656 168.175 192.921 168.169 196.585V204.919L183.233 236.848C229.487 212.993 256.142 162.996 250.17 111.298Z" fill="#F1F1F2" fill-opacity="0.8"/>
</svg>
