<svg width="251" height="311" viewBox="0 0 251 311" fill="none" xmlns="http://www.w3.org/2000/svg">
<g clip-path="url(#clip0_4049_26417)">
<path fill-rule="evenodd" clip-rule="evenodd" d="M328.656 103.528C328.89 103.496 329.123 103.463 329.361 103.463C345.08 103.463 357.861 116.245 357.861 131.964C357.861 139.46 354.822 146.803 349.515 152.111V152.118L328.082 173.547V311.924C328.082 328.348 314.718 341.704 298.301 341.704H30.2803C13.8634 341.704 0.5 328.348 0.5 311.924V43.9027C0.5 27.4787 13.8634 14.1223 30.2803 14.1223H298.301C314.718 14.1223 328.082 27.4787 328.082 43.9027V103.591C328.275 103.582 328.465 103.555 328.656 103.528ZM104.731 51.3479C104.731 47.2355 101.397 43.9027 97.2856 43.9027C93.1739 43.9027 89.8403 47.2355 89.8403 51.3479C89.8403 55.459 93.1739 58.7932 97.2856 58.7932C101.397 58.7932 104.731 55.4597 104.731 51.3479ZM74.9505 51.3479C74.9505 47.2355 71.617 43.9027 67.5053 43.9027C63.3935 43.9027 60.06 47.2355 60.06 51.3479C60.06 55.4597 63.3935 58.7932 67.5053 58.7932C71.617 58.7932 74.9505 55.4597 74.9505 51.3479ZM45.1702 51.3479C45.1702 47.2355 41.8367 43.9027 37.7249 43.9027C33.6139 43.9027 30.2803 47.2355 30.2796 51.3479C30.2796 55.4597 33.6132 58.7932 37.7249 58.7932C41.8367 58.7932 45.1702 55.4597 45.1702 51.3479ZM30.2803 311.924H298.301V203.323L258.881 242.737C257.848 243.777 256.525 244.482 255.071 244.773L217.86 252.219C217.381 252.313 216.887 252.364 216.406 252.364C214.458 252.364 212.553 251.593 211.142 250.183C209.383 248.424 208.612 245.9 209.106 243.458L216.256 207.694H82.3951C78.2798 207.694 74.9498 204.363 74.9498 200.248C74.9498 196.133 78.2798 192.803 82.3951 192.803H228.201L298.301 122.713V88.5728H30.2803V311.924ZM298.298 143.767L317.553 163.022L328.082 152.496L308.825 133.24L298.298 143.767ZM82.3951 163.023H246.186C250.301 163.023 253.631 159.693 253.631 155.578C253.631 151.463 250.301 148.133 246.186 148.133H82.3951C78.2798 148.133 74.9498 151.463 74.9498 155.578C74.9498 159.693 78.2805 163.023 82.3951 163.023ZM171.735 237.473H82.3951C78.2798 237.473 74.9498 240.803 74.9498 244.918C74.9498 249.034 78.2798 252.364 82.3951 252.364H171.735C175.851 252.364 179.181 249.034 179.181 244.918C179.181 240.803 175.851 237.473 171.735 237.473Z" fill="url(#paint0_linear_4049_26417)"/>
</g>
<defs>
<linearGradient id="paint0_linear_4049_26417" x1="179.181" y1="14.1223" x2="179.181" y2="341.704" gradientUnits="userSpaceOnUse">
<stop stop-color="#9DE1DB"/>
<stop offset="1" stop-color="#0E5B9F"/>
</linearGradient>
<clipPath id="clip0_4049_26417">
<rect width="326" height="326" fill="white" transform="translate(0.5 0.539062)"/>
</clipPath>
</defs>
</svg>
