<svg width="310" height="296" viewBox="0 0 310 296" fill="none" xmlns="http://www.w3.org/2000/svg">
<path fill-rule="evenodd" clip-rule="evenodd" d="M159.581 179.606C168.91 180.103 192.281 179.606 211.135 173.637C234.702 166.175 258.27 158.714 261.216 160.206C261.867 160.536 261.798 162.47 261.694 165.411C261.327 175.777 260.517 198.659 289.202 207.958C292.639 214.922 299.218 231.834 298.04 237.803C297.331 241.393 289.12 248.783 279.643 257.313L279.642 257.313C269.422 266.512 257.728 277.038 252.378 285.554C249.432 285.554 243.226 287.822 243.54 296H258.27C276.927 280.083 315.716 247.353 321.607 243.772L323.08 215.419C340.265 218.404 377.286 228.252 387.891 243.772C398.496 259.291 405.076 278.093 407.04 285.554C405.076 286.549 401.442 290.031 402.621 296H415.877L418.823 287.047C419.805 284.56 420.296 276.899 414.404 266.155C408.513 255.411 397.22 223.875 392.31 209.45C379.544 206.963 354.602 198.109 356.959 182.59C357.697 177.729 358.712 173.711 359.681 169.88C362.578 158.419 365.055 148.622 358.432 122.901C366.288 131.357 383.767 153.044 390.837 172.144C399.675 196.02 443.864 249.741 505.729 216.911C498.855 214.424 479.804 202.586 458.594 175.129C432.08 140.807 411.459 116.932 389.364 102.009C371.688 90.0714 346.648 92.0611 336.337 94.5481C328.481 91.5636 303.343 85.5947 265.635 85.5947C260.391 85.5947 255.11 85.6132 249.844 85.6317H249.841H249.838H249.835H249.832H249.83H249.827H249.824H249.821C207.761 85.779 166.613 85.9231 152.216 76.6413C136.013 66.1956 128.648 55.75 121.283 43.8121C115.392 34.2618 100.171 10.9829 93.2971 0.537231L81.5133 15.4596C71.6935 15.4596 51.4647 16.9518 49.108 22.9208C46.7512 28.8897 18.6666 28.3923 4.91891 27.3975C5.90089 31.8742 13.4622 42.6183 35.8513 49.781C58.2404 56.9437 64.8197 66.693 65.3107 70.6723C71.6936 95.5429 87.9944 148.269 102.135 160.206L102.556 160.562C81.5892 167.662 40.8003 182.053 37.3242 185.574C33.7891 189.156 11.3018 210.942 0.5 221.388C3.93693 224.373 13.7568 227.059 25.5405 213.927C37.3243 200.795 45.1801 196.518 47.635 196.02C69.2386 191.543 114.802 182.888 124.229 184.082C138.959 197.512 171.954 236.609 186.094 285.554C183.148 286.549 177.551 289.733 178.729 294.508H194.932C197.387 294.508 201.413 291.822 197.878 281.078C193.459 267.647 161.054 182.59 159.581 179.606ZM55.4991 29.9548C56.565 28.8889 59.0805 26.6292 60.6154 26.1176C59.9758 27.1835 59.0805 29.699 60.6154 31.2339C59.3363 31.0207 56.5224 30.4664 55.4991 29.9548ZM65.0912 31.8734C66.6261 30.3385 65.3044 27.3967 64.4517 26.1176C65.7307 26.1176 72.126 29.3153 71.4865 29.9548C70.9749 30.4664 67.0098 31.447 65.0912 31.8734ZM88.754 28.04C89.8199 26.9741 92.2075 23.3075 93.2307 19.7261C94.254 16.1448 94.5098 11.6254 94.5098 9.49366C95.1493 11.4123 96.4147 18.5015 95.1493 23.5633C93.8702 28.6796 91.3121 28.6796 88.754 28.04ZM93.2306 37.6307C93.2306 36.6074 91.9516 34.2198 91.312 33.154C93.3585 33.154 98.1337 36.1384 100.265 37.6307H93.2306ZM93.8715 44.0277C96.856 44.2409 103.848 43.8998 105.383 43.3882C102.047 42.2642 95.672 40.5935 93.8715 40.1905V44.0277ZM105.382 49.7852C103.847 50.2969 96.5911 50.8348 93.6066 50.6216C93.8701 49.3248 93.9776 47.489 93.8701 46.5876C95.2071 47.0755 101.108 48.647 104.537 49.5603L104.538 49.5606L104.539 49.5608L105.382 49.7852ZM91.6036 56.1815C94.5881 56.3946 103.847 56.0546 105.382 55.543C103.5 55.0411 99.8949 54.3792 96.9572 53.8398L96.957 53.8398C94.9043 53.4629 93.1773 53.1458 92.5914 52.9849C92.5914 53.7731 92.0413 55.272 91.6036 56.1815ZM90.2667 58.4572C90.031 59.007 88.4647 60.4117 87.7111 61.0453H101.8C100.647 61.0453 93.6306 59.3199 90.2667 58.4572ZM480.361 203.313C485.487 207.347 496.23 215.578 498.196 216.233C491.311 218.842 475.555 223.987 467.62 223.696L475.992 217.053L468.984 209.408L479.177 208.953L476.629 199.853C477.438 200.666 479.317 202.495 480.361 203.313Z" fill="#1D1916" fill-opacity="0.2"/>
</svg>
