<svg width="48" height="48" viewBox="0 0 48 48" fill="none" xmlns="http://www.w3.org/2000/svg">
<path fill-rule="evenodd" clip-rule="evenodd" d="M4.5 24C4.5 13.2341 13.2341 4.5 24 4.5C34.7659 4.5 43.5 13.2341 43.5 24C43.5 34.7659 34.7659 43.5 24 43.5C13.2341 43.5 4.5 34.7659 4.5 24ZM24 7.5C14.8909 7.5 7.5 14.8909 7.5 24C7.5 33.1091 14.8909 40.5 24 40.5C33.1091 40.5 40.5 33.1091 40.5 24C40.5 14.8909 33.1091 7.5 24 7.5Z" fill="#C6CBD9"/>
<path d="M24.0001 33.7499C23.699 33.7497 23.405 33.6589 23.1563 33.4893C19.4719 30.988 17.8763 29.2705 16.9969 28.2009C15.1219 25.9162 14.2238 23.5696 14.2501 21.029C14.2791 18.1171 16.6144 15.748 19.456 15.748C21.3685 15.748 22.7373 16.7446 23.5904 17.6615C23.643 17.7171 23.7063 17.7614 23.7766 17.7917C23.8469 17.8219 23.9226 17.8376 23.9991 17.8376C24.0757 17.8376 24.1514 17.8219 24.2217 17.7917C24.2919 17.7614 24.3553 17.7171 24.4079 17.6615C25.2619 16.7446 26.6298 15.748 28.5423 15.748C31.3838 15.748 33.7191 18.1171 33.7482 21.029C33.7744 23.5696 32.8754 25.9162 31.0013 28.2009C30.1219 29.2734 28.5263 30.988 24.8419 33.4893C24.5937 33.6585 24.3005 33.7493 24.0001 33.7499Z" fill="#C6CBD9"/>
</svg>
