<svg width="48" height="48" viewBox="0 0 48 48" fill="none" xmlns="http://www.w3.org/2000/svg">
<path d="M24 24C26.0767 24 28.1068 23.3842 29.8335 22.2304C31.5602 21.0767 32.906 19.4368 33.7007 17.5182C34.4955 15.5996 34.7034 13.4884 34.2982 11.4516C33.8931 9.41476 32.8931 7.54383 31.4246 6.07538C29.9562 4.60693 28.0853 3.6069 26.0484 3.20176C24.0116 2.79661 21.9004 3.00455 19.9818 3.79927C18.0632 4.59399 16.4233 5.9398 15.2696 7.66652C14.1158 9.39323 13.5 11.4233 13.5 13.5C13.5 16.2848 14.6062 18.9555 16.5754 20.9246C18.5445 22.8938 21.2152 24 24 24ZM24 27C17.4919 27 4.5 31.02 4.5 39V45H43.5V39C43.5 31.02 30.5081 27 24 27Z" fill="#C6CBD9"/>
</svg>
