<svg width="20" height="20" viewBox="0 0 20 20" fill="none" xmlns="http://www.w3.org/2000/svg">
<path fill-rule="evenodd" clip-rule="evenodd" d="M10.5312 3.6543C11.3068 2.90526 12.3455 2.49079 13.4237 2.50016C14.5018 2.50952 15.5332 2.94198 16.2956 3.70439C17.058 4.46679 17.4904 5.49814 17.4998 6.5763C17.5092 7.65446 17.0947 8.69317 16.3457 9.46871L16.3373 9.47721L14.2814 11.5331C13.8645 11.9502 13.3628 12.2726 12.8104 12.4787C12.2579 12.6848 11.6676 12.7697 11.0795 12.7275C10.4913 12.6854 9.91912 12.5173 9.40167 12.2346C8.88422 11.9519 8.43362 11.5612 8.08043 11.089C7.85372 10.7859 7.91563 10.3565 8.21872 10.1297C8.52182 9.90302 8.95131 9.96494 9.17802 10.268C9.41348 10.5828 9.71388 10.8433 10.0588 11.0317C10.4038 11.2202 10.7853 11.3323 11.1774 11.3604C11.5695 11.3885 11.963 11.3319 12.3313 11.1945C12.6996 11.0571 13.0341 10.8421 13.312 10.5641L13.3121 10.564L15.3636 8.51244C15.8605 7.99585 16.1354 7.30511 16.1292 6.58821C16.1229 5.86944 15.8346 5.18187 15.3264 4.6736C14.8181 4.16533 14.1305 3.87703 13.4117 3.87078C12.6945 3.86455 12.0035 4.13965 11.4868 4.63695L10.3118 5.8052C10.0433 6.07206 9.60941 6.0708 9.34255 5.80238C9.07569 5.53395 9.07696 5.10002 9.34538 4.83316L10.5242 3.66123L10.5312 3.6543Z" fill="#004CC4"/>
<path fill-rule="evenodd" clip-rule="evenodd" d="M7.18958 7.50737C7.74203 7.30129 8.33235 7.21643 8.92049 7.25855C9.50863 7.30067 10.0808 7.46879 10.5983 7.7515C11.1157 8.03421 11.5663 8.42489 11.9195 8.89706C12.1462 9.20015 12.0843 9.62964 11.7812 9.85636C11.4781 10.0831 11.0486 10.0212 10.8219 9.71807C10.5865 9.40329 10.2861 9.14283 9.9411 8.95436C9.59614 8.76589 9.21467 8.65381 8.82258 8.62573C8.43048 8.59765 8.03694 8.65422 7.66863 8.79161C7.30033 8.929 6.96588 9.14399 6.68797 9.422L4.63631 11.4737C4.13941 11.9903 3.86455 12.681 3.87078 13.3979C3.87703 14.1167 4.16533 14.8042 4.6736 15.3125C5.18187 15.8208 5.86944 16.1091 6.58821 16.1153C7.30511 16.1215 7.99584 15.8467 8.51243 15.3498L9.67992 14.1823C9.94756 13.9147 10.3815 13.9147 10.6491 14.1823C10.9168 14.4499 10.9168 14.8839 10.6491 15.1515L9.47721 16.3235L9.46871 16.3318C8.69317 17.0808 7.65446 17.4953 6.5763 17.4859C5.49814 17.4766 4.46679 17.0441 3.70439 16.2817C2.94198 15.5193 2.50952 14.488 2.50016 13.4098C2.49079 12.3316 2.90526 11.2929 3.6543 10.5174L3.66264 10.5089L5.71857 8.45296C5.71854 8.45299 5.7186 8.45293 5.71857 8.45296C6.13542 8.03599 6.63716 7.71344 7.18958 7.50737Z" fill="#004CC4"/>
</svg>
