<svg xmlns="http://www.w3.org/2000/svg" width="20px" height="20px" fill="none" transform="rotate(0) scale(1, 1)"><path fill="#c2d8ff" fill-rule="evenodd" d="M3.333 10c0-.46.374-.833.834-.833h11.666a.833.833 0 0 1 0 1.666H4.168A.833.833 0 0 1 3.334 10Z" clip-rule="evenodd"/><path fill="#c2d8ff" fill-rule="evenodd" d="M9.41 3.577a.833.833 0 0 1 1.18 0l5.832 5.834a.833.833 0 0 1 0 1.178l-5.833 5.833a.833.833 0 0 1-1.178-1.178L14.655 10 9.41 4.756a.833.833 0 0 1 0-1.179Z" clip-rule="evenodd"/></svg>