<svg width="65" height="64" viewBox="0 0 65 64" fill="none" xmlns="http://www.w3.org/2000/svg">
<path fill-rule="evenodd" clip-rule="evenodd" d="M18.5 22C17.9696 22 17.4609 22.2107 17.0858 22.5858C16.7107 22.9609 16.5 23.4696 16.5 24V46C16.5 46.5304 16.7107 47.0391 17.0858 47.4142C17.4609 47.7893 17.9696 48 18.5 48H40.5C41.0304 48 41.5391 47.7893 41.9142 47.4142C42.2893 47.0391 42.5 46.5304 42.5 46V34C42.5 32.8954 43.3954 32 44.5 32C45.6046 32 46.5 32.8954 46.5 34V46C46.5 47.5913 45.8679 49.1174 44.7426 50.2426C43.6174 51.3679 42.0913 52 40.5 52H18.5C16.9087 52 15.3826 51.3679 14.2574 50.2426C13.1321 49.1174 12.5 47.5913 12.5 46V24C12.5 22.4087 13.1321 20.8826 14.2574 19.7574C15.3826 18.6321 16.9087 18 18.5 18H30.5C31.6046 18 32.5 18.8954 32.5 20C32.5 21.1046 31.6046 22 30.5 22H18.5Z" fill="#004CC4"/>
<path fill-rule="evenodd" clip-rule="evenodd" d="M36.5 14C36.5 12.8954 37.3954 12 38.5 12H50.5C51.6046 12 52.5 12.8954 52.5 14V26C52.5 27.1046 51.6046 28 50.5 28C49.3954 28 48.5 27.1046 48.5 26V16H38.5C37.3954 16 36.5 15.1046 36.5 14Z" fill="#004CC4"/>
<path fill-rule="evenodd" clip-rule="evenodd" d="M51.9142 12.5858C52.6953 13.3668 52.6953 14.6332 51.9142 15.4142L29.9142 37.4142C29.1332 38.1953 27.8668 38.1953 27.0858 37.4142C26.3047 36.6332 26.3047 35.3668 27.0858 34.5858L49.0858 12.5858C49.8668 11.8047 51.1332 11.8047 51.9142 12.5858Z" fill="#004CC4"/>
</svg>
