<svg xmlns="http://www.w3.org/2000/svg" width="25" height="24" fill="none"><path fill="#1A2D82" d="M20.375 1.5H4.625A1.125 1.125 0 0 0 3.5 2.625V19.5a1.5 1.5 0 0 0 .75 1.299V22.5h3.375V21h9.75v1.5h3.375v-1.701a1.5 1.5 0 0 0 .75-1.299V2.625A1.125 1.125 0 0 0 20.375 1.5ZM8.742 17.413a1.5 1.5 0 1 1-.995-1.577 1.505 1.505 0 0 1 .995 1.577ZM11.75 13.5H5V6h6.75v7.5Zm.75-9H5.022L5 3h15l-.022 1.5H12.5Zm.75 1.5H20v7.5h-6.75V6Zm3.008 11.087a1.501 1.501 0 1 1 1.655 1.655 1.506 1.506 0 0 1-1.655-1.655Z"/></svg>