<svg width="32" height="32" viewBox="0 0 32 32" fill="none" xmlns="http://www.w3.org/2000/svg">
<path d="M15.7015 0C8.71272 0 3.53465 4.92308 3.04213 11.3934C2.15068 23.1046 15.7015 32 15.7015 32C15.7015 32 29.6828 23.5591 28.3608 11.3934C27.6577 4.92308 22.6902 0 15.7015 0Z" fill="#004CC4"/>
<circle cx="15.8422" cy="12.8007" r="9.84615" fill="white"/>
<path d="M19.1652 7.63147H12.5191C12.2253 7.63147 11.9435 7.74817 11.7358 7.95591C11.5281 8.16364 11.4114 8.44538 11.4114 8.73916V16.1238C11.4114 16.2795 11.4443 16.4335 11.5079 16.5756C11.5715 16.7177 11.6644 16.8448 11.7806 16.9485V17.3699C11.7806 17.5291 11.8438 17.6817 11.9563 17.7942C12.0689 17.9067 12.2215 17.9699 12.3806 17.9699H13.0268C13.1859 17.9699 13.3385 17.9067 13.451 17.7942C13.5635 17.6817 13.6268 17.5291 13.6268 17.3699V17.2315H18.0575V17.3699C18.0575 17.5291 18.1207 17.6817 18.2333 17.7942C18.3458 17.9067 18.4984 17.9699 18.6575 17.9699H19.3037C19.4628 17.9699 19.6154 17.9067 19.7279 17.7942C19.8405 17.6817 19.9037 17.5291 19.9037 17.3699V16.9485C20.0198 16.8448 20.1128 16.7177 20.1764 16.5756C20.24 16.4335 20.2729 16.2795 20.2729 16.1238V8.73916C20.2729 8.44538 20.1562 8.16364 19.9485 7.95591C19.7407 7.74817 19.459 7.63147 19.1652 7.63147ZM13.3376 16.1196C13.1856 16.1362 13.0323 16.1051 12.8987 16.0308C12.7651 15.9565 12.6578 15.8425 12.5918 15.7046C12.5257 15.5668 12.5041 15.4118 12.5298 15.2611C12.5556 15.1104 12.6274 14.9714 12.7355 14.8633C12.8436 14.7552 12.9826 14.6833 13.1333 14.6576C13.284 14.6318 13.439 14.6535 13.5769 14.7196C13.7147 14.7856 13.8287 14.8929 13.903 15.0265C13.9773 15.16 14.0084 15.3134 13.9918 15.4654C13.9736 15.6327 13.8989 15.7887 13.7799 15.9077C13.6609 16.0266 13.5049 16.1014 13.3376 16.1196ZM15.3806 13.5392H12.5191C12.4211 13.5392 12.3272 13.5003 12.258 13.431C12.1887 13.3618 12.1498 13.2679 12.1498 13.1699V10.2161C12.1498 10.1182 12.1887 10.0242 12.258 9.955C12.3272 9.88576 12.4211 9.84685 12.5191 9.84685H15.3806C15.4051 9.84685 15.4286 9.85658 15.4459 9.87389C15.4632 9.8912 15.4729 9.91468 15.4729 9.93916V13.4469C15.4729 13.4713 15.4632 13.4948 15.4459 13.5121C15.4286 13.5294 15.4051 13.5392 15.3806 13.5392ZM15.8421 9.10839H12.5297C12.3312 9.10839 12.1605 8.95609 12.1503 8.75785C12.1478 8.70786 12.1554 8.65786 12.1728 8.61092C12.1902 8.56397 12.217 8.52105 12.2514 8.48477C12.2859 8.44848 12.3275 8.41959 12.3735 8.39985C12.4195 8.38011 12.469 8.36993 12.5191 8.36993H19.1546C19.3531 8.36993 19.5238 8.52224 19.534 8.72047C19.5365 8.77047 19.5289 8.82046 19.5115 8.86741C19.4941 8.91435 19.4673 8.95727 19.4328 8.99356C19.3984 9.02984 19.3568 9.05873 19.3108 9.07847C19.2648 9.09822 19.2153 9.10839 19.1652 9.10839H15.8421ZM16.3037 9.84685H19.1652C19.2631 9.84685 19.3571 9.88576 19.4263 9.955C19.4956 10.0242 19.5345 10.1182 19.5345 10.2161V13.1699C19.5345 13.2679 19.4956 13.3618 19.4263 13.431C19.3571 13.5003 19.2631 13.5392 19.1652 13.5392H16.3037C16.2792 13.5392 16.2557 13.5294 16.2384 13.5121C16.2211 13.4948 16.2114 13.4713 16.2114 13.4469V9.93916C16.2114 9.91468 16.2211 9.8912 16.2384 9.87389C16.2557 9.85658 16.2792 9.84685 16.3037 9.84685ZM17.6925 15.4654C17.6759 15.3134 17.707 15.16 17.7813 15.0265C17.8556 14.8929 17.9696 14.7856 18.1074 14.7196C18.2453 14.6535 18.4003 14.6318 18.551 14.6576C18.7017 14.6833 18.8407 14.7552 18.9488 14.8633C19.0569 14.9714 19.1287 15.1104 19.1545 15.2611C19.1802 15.4118 19.1586 15.5668 19.0925 15.7046C19.0264 15.8425 18.9192 15.9565 18.7856 16.0308C18.652 16.1051 18.4987 16.1362 18.3467 16.1196C18.1794 16.1014 18.0234 16.0266 17.9044 15.9077C17.7854 15.7887 17.7107 15.6327 17.6925 15.4654Z" fill="#004CC4"/>
</svg>
