<svg xmlns="http://www.w3.org/2000/svg" width="25" height="24" fill="none"><path fill="#22232C" fill-rule="evenodd" d="M4.833 4.5a1.5 1.5 0 0 0-1.5 1.5v13.5a1.5 1.5 0 0 0 1.5 1.5h15a1.5 1.5 0 0 0 1.5-1.5V6a1.5 1.5 0 0 0-1.5-1.5h-15Zm-3 1.5a3 3 0 0 1 3-3h15a3 3 0 0 1 3 3v13.5a3 3 0 0 1-3 3h-15a3 3 0 0 1-3-3V6Z" clip-rule="evenodd"/><path fill="#22232C" fill-rule="evenodd" d="M6.333 1.5a.75.75 0 0 1 .75.75v1.5a.75.75 0 0 1-1.5 0v-1.5a.75.75 0 0 1 .75-.75Zm12 0a.75.75 0 0 1 .75.75v1.5a.75.75 0 0 1-1.5 0v-1.5a.75.75 0 0 1 .75-.75Zm-16.5 6a.75.75 0 0 1 .75-.75h19.5a.75.75 0 0 1 0 1.5h-19.5a.75.75 0 0 1-.75-.75Zm5.073 3.505c.32-.54 1.117-1.255 2.42-1.255.718 0 1.45.194 2.021.63.59.45.972 1.132.973 1.986a2.527 2.527 0 0 1-.738 1.81 2.783 2.783 0 0 1-.164.153c.138.1.27.213.392.338.545.556.758 1.299.758 2.029 0 .888-.385 1.616-1.004 2.106-.603.475-1.388.698-2.19.698-1.519 0-2.414-1.093-2.702-1.58a.75.75 0 0 1 1.292-.762c.17.287.665.842 1.41.842.54 0 .976-.151 1.26-.375.267-.211.434-.51.434-.93 0-.452-.13-.776-.328-.977l-.001-.001c-.407-.415-1.08-.594-1.412-.594a.75.75 0 0 1 0-1.5c.114 0 .328-.03.569-.119a1.68 1.68 0 0 0 .616-.38l.007-.007a1.028 1.028 0 0 0 .301-.738v-.009c0-.368-.147-.619-.382-.797-.255-.194-.646-.323-1.112-.323-.705 0-1.043.373-1.13.52a.75.75 0 0 1-1.29-.764Zm9.268-.921a.75.75 0 0 1 .445-.146h.215a.75.75 0 0 1 .75.75v7.874a.75.75 0 0 1-1.5 0v-6.548l-1.056.777a.75.75 0 0 1-.89-1.207l2.036-1.5Z" clip-rule="evenodd"/></svg>