<svg xmlns="http://www.w3.org/2000/svg" width="24" height="24" fill="none"><path fill="#000" fill-rule="evenodd" d="M4.5 4.5A1.5 1.5 0 0 0 3 6v13.5A1.5 1.5 0 0 0 4.5 21h15a1.5 1.5 0 0 0 1.5-1.5V6a1.5 1.5 0 0 0-1.5-1.5h-15ZM1.5 6a3 3 0 0 1 3-3h15a3 3 0 0 1 3 3v13.5a3 3 0 0 1-3 3h-15a3 3 0 0 1-3-3V6Z" clip-rule="evenodd"/><path fill="#000" fill-rule="evenodd" d="M6 1.5a.75.75 0 0 1 .75.75v1.5a.75.75 0 0 1-1.5 0v-1.5A.75.75 0 0 1 6 1.5Zm12 0a.75.75 0 0 1 .75.75v1.5a.75.75 0 0 1-1.5 0v-1.5A.75.75 0 0 1 18 1.5Zm-16.5 6a.75.75 0 0 1 .75-.75h19.5a.75.75 0 0 1 0 1.5H2.25a.75.75 0 0 1-.75-.75Zm5.072 3.505c.32-.54 1.118-1.255 2.42-1.255.719 0 1.45.194 2.022.63.59.45.972 1.132.973 1.986a2.527 2.527 0 0 1-.739 1.81 2.783 2.783 0 0 1-.163.153c.137.1.27.213.392.338.545.556.757 1.299.757 2.029 0 .888-.384 1.616-1.004 2.106-.602.475-1.387.698-2.189.698-1.52 0-2.415-1.093-2.703-1.58a.75.75 0 0 1 1.292-.762c.17.287.665.842 1.411.842.539 0 .975-.151 1.26-.375.267-.211.433-.51.433-.93 0-.452-.13-.776-.328-.977v-.001c-.407-.415-1.08-.594-1.412-.594a.75.75 0 0 1 0-1.5c.113 0 .327-.03.568-.119a1.68 1.68 0 0 0 .617-.38l.006-.007a1.028 1.028 0 0 0 .302-.738v-.009c0-.368-.148-.619-.382-.797-.255-.194-.646-.323-1.113-.323-.704 0-1.042.373-1.129.52a.75.75 0 0 1-1.29-.764Zm9.268-.921a.75.75 0 0 1 .445-.146h.215a.75.75 0 0 1 .75.75v7.874a.75.75 0 0 1-1.5 0v-6.548l-1.055.777a.75.75 0 0 1-.89-1.207l2.035-1.5Z" clip-rule="evenodd"/></svg>