<svg width="64" height="64" viewBox="0 0 64 64" fill="none" xmlns="http://www.w3.org/2000/svg">
<path fill-rule="evenodd" clip-rule="evenodd" d="M60.5522 8.78105C61.5936 9.82245 61.5936 11.5109 60.5522 12.5523L33.8855 39.219C32.8441 40.2604 31.1557 40.2604 30.1143 39.219L22.1143 31.219C21.0729 30.1776 21.0729 28.4891 22.1143 27.4477C23.1557 26.4063 24.8441 26.4063 25.8855 27.4477L31.9999 33.5621L56.781 8.78105C57.8224 7.73965 59.5108 7.73965 60.5522 8.78105Z" fill="#2DBB45"/>
<path fill-rule="evenodd" clip-rule="evenodd" d="M13.3333 10.6667C12.626 10.6667 11.9477 10.9477 11.4476 11.4478C10.9475 11.9479 10.6666 12.6261 10.6666 13.3334V50.6667C10.6666 51.374 10.9475 52.0522 11.4476 52.5523C11.9477 53.0524 12.626 53.3334 13.3333 53.3334H50.6666C51.3738 53.3334 52.0521 53.0524 52.5522 52.5523C53.0523 52.0522 53.3333 51.3739 53.3333 50.6667V32C53.3333 30.5273 54.5272 29.3334 55.9999 29.3334C57.4727 29.3334 58.6666 30.5273 58.6666 32V50.6667C58.6666 52.7884 57.8237 54.8233 56.3234 56.3236C54.8232 57.8239 52.7883 58.6667 50.6666 58.6667H13.3333C11.2115 58.6667 9.17669 57.8239 7.6764 56.3236C6.17611 54.8233 5.33325 52.7884 5.33325 50.6667V13.3334C5.33325 11.2116 6.17611 9.17681 7.6764 7.67652C9.17669 6.17623 11.2115 5.33337 13.3333 5.33337H42.6666C44.1393 5.33337 45.3333 6.52728 45.3333 8.00004C45.3333 9.4728 44.1393 10.6667 42.6666 10.6667H13.3333Z" fill="#2DBB45"/>
</svg>
