<svg width="32" height="32" viewBox="0 0 32 32" fill="none" xmlns="http://www.w3.org/2000/svg">
<path d="M15.7015 0C8.71272 0 3.53465 4.92308 3.04213 11.3934C2.15068 23.1046 15.7015 32 15.7015 32C15.7015 32 29.6828 23.5591 28.3608 11.3934C27.6577 4.92308 22.6902 0 15.7015 0Z" fill="#004CC4"/>
<circle cx="15.8422" cy="12.8007" r="9.84615" fill="white"/>
<g clip-path="url(#clip0_4147_224097)">
<path d="M14.6016 8.60082C13.7678 8.20274 12.6024 8.00774 11.0422 8.00082C10.895 7.99882 10.7508 8.04173 10.6286 8.12382C10.5284 8.19158 10.4463 8.28293 10.3897 8.38985C10.333 8.49677 10.3035 8.61597 10.3037 8.73697V15.3393C10.3037 15.7856 10.6213 16.1223 11.0422 16.1223C12.6823 16.1223 14.3274 16.2755 15.3128 17.2069C15.3263 17.2197 15.3432 17.2282 15.3615 17.2315C15.3798 17.2347 15.3987 17.2326 15.4157 17.2252C15.4328 17.2178 15.4473 17.2056 15.4575 17.19C15.4677 17.1745 15.473 17.1563 15.4729 17.1377V9.3582C15.473 9.30571 15.4618 9.25383 15.44 9.20606C15.4183 9.15828 15.3865 9.11573 15.3469 9.08128C15.1212 8.88832 14.8705 8.7267 14.6016 8.60082ZM21.0557 8.12312C20.9335 8.04124 20.7893 7.99857 20.6422 8.00082C19.0819 8.00774 17.9166 8.20182 17.0828 8.60082C16.8139 8.72648 16.5631 8.88777 16.3372 9.08036C16.2977 9.11487 16.266 9.15744 16.2443 9.2052C16.2226 9.25296 16.2114 9.30482 16.2114 9.35728V17.1372C16.2114 17.1551 16.2167 17.1725 16.2265 17.1874C16.2364 17.2023 16.2505 17.2139 16.2669 17.2209C16.2834 17.2278 16.3015 17.2297 16.3191 17.2263C16.3366 17.223 16.3528 17.2145 16.3656 17.202C16.9579 16.6136 17.9976 16.1216 20.6431 16.1218C20.8389 16.1218 21.0268 16.044 21.1653 15.9055C21.3038 15.767 21.3816 15.5792 21.3816 15.3834V8.7372C21.3818 8.61596 21.3522 8.49652 21.2954 8.38942C21.2386 8.28233 21.1563 8.19087 21.0557 8.12312Z" fill="#004CC4"/>
</g>
<defs>
<clipPath id="clip0_4147_224097">
<rect width="11.8154" height="11.8154" fill="white" transform="translate(9.93457 6.89307)"/>
</clipPath>
</defs>
</svg>
