<svg xmlns="http://www.w3.org/2000/svg" width="24" height="24" fill="none"><path fill="#E2E5E7" d="M6 0c-.825 0-1.5.675-1.5 1.5v21c0 .825.675 1.5 1.5 1.5h15c.825 0 1.5-.675 1.5-1.5V6l-6-6H6Z"/><path fill="#B0B7BD" d="M18 6h4.5l-6-6v4.5c0 .825.675 1.5 1.5 1.5Z"/><path fill="#CAD1D8" d="M22.5 10.5 18 6h4.5v4.5Z"/><path fill="#50BEE8" d="M19.5 19.5c0 .413-.337.75-.75.75H2.25a.752.752 0 0 1-.75-.75V12c0-.412.337-.75.75-.75h16.5c.413 0 .75.338.75.75v7.5Z"/><path fill="#fff" d="M4.34 18c-.198 0-.414-.109-.414-.372v-3.406c0-.216.216-.372.414-.372h1.373c2.74 0 2.68 4.15.053 4.15H4.34Zm.378-3.418v2.686h.995c1.619 0 1.69-2.687 0-2.687h-.995ZM10.688 18.06c-1.11.048-2.262-.69-2.262-2.16 0-1.475 1.152-2.2 2.261-2.2 1.05.054 2.147.78 2.147 2.2 0 1.423-1.097 2.16-2.146 2.16Zm-.067-3.58c-.671 0-1.403.474-1.403 1.421 0 .942.732 1.422 1.403 1.422.69 0 1.428-.48 1.428-1.421 0-.948-.737-1.422-1.428-1.422ZM13.54 15.895c0-1.157.726-2.153 2.105-2.153.522 0 .936.156 1.373.534.162.15.18.414.018.582a.407.407 0 0 1-.552-.019c-.245-.258-.497-.329-.839-.329-.923 0-1.367.654-1.367 1.386 0 .744.438 1.427 1.367 1.427.342 0 .66-.139.936-.384a.403.403 0 0 1 .551.072c.096.132.143.354-.066.563-.42.39-.923.469-1.422.469-1.45 0-2.104-.991-2.104-2.148Z"/><path fill="#CAD1D8" d="M18.75 20.25H4.5V21h14.25c.413 0 .75-.337.75-.75v-.75c0 .413-.337.75-.75.75Z"/></svg>