<svg width="32" height="32" viewBox="0 0 32 32" fill="none" xmlns="http://www.w3.org/2000/svg">
<path d="M15.7015 0C8.71272 0 3.53465 4.92308 3.04213 11.3934C2.15068 23.1046 15.7015 32 15.7015 32C15.7015 32 29.6828 23.5591 28.3608 11.3934C27.6577 4.92308 22.6902 0 15.7015 0Z" fill="#004CC4"/>
<circle cx="15.8422" cy="12.8007" r="9.84615" fill="white"/>
<g clip-path="url(#clip0_4147_224095)">
<path d="M15.8422 15.3853C15.7779 15.3853 15.7148 15.3685 15.659 15.3366L12.4268 13.4893C12.3987 13.4731 12.3669 13.4646 12.3344 13.4646C12.302 13.4646 12.2702 13.4732 12.2421 13.4894C12.214 13.5056 12.1907 13.529 12.1745 13.5571C12.1584 13.5852 12.1499 13.6171 12.1499 13.6495V15.3853C12.1498 15.4512 12.1674 15.5159 12.2008 15.5728C12.2342 15.6296 12.2822 15.6764 12.3398 15.7084L15.6629 17.5546C15.7178 17.585 15.7795 17.601 15.8422 17.601C15.905 17.601 15.9667 17.585 16.0215 17.5546L19.3446 15.7084C19.4022 15.6764 19.4502 15.6296 19.4836 15.5728C19.517 15.5159 19.5346 15.4512 19.5345 15.3853V13.6495C19.5346 13.6171 19.5261 13.5852 19.5099 13.5571C19.4937 13.529 19.4704 13.5056 19.4423 13.4894C19.4143 13.4732 19.3824 13.4646 19.35 13.4646C19.3175 13.4646 19.2857 13.4731 19.2576 13.4893L16.0254 15.3366C15.9696 15.3685 15.9065 15.3853 15.8422 15.3853Z" fill="#004CC4"/>
<path d="M21.379 11.2892V11.2866C21.373 11.2281 21.3531 11.1719 21.321 11.1226C21.2889 11.0733 21.2455 11.0324 21.1944 11.0033L16.0251 8.0494C15.9693 8.01751 15.9062 8.00073 15.8419 8.00073C15.7776 8.00073 15.7145 8.01751 15.6587 8.0494L10.4894 11.0033C10.4329 11.0356 10.386 11.0822 10.3533 11.1385C10.3207 11.1948 10.3035 11.2587 10.3035 11.3238C10.3035 11.3889 10.3207 11.4528 10.3533 11.5091C10.386 11.5654 10.4329 11.612 10.4894 11.6443L15.6587 14.5982C15.7145 14.6301 15.7776 14.6468 15.8419 14.6468C15.9062 14.6468 15.9693 14.6301 16.0251 14.5982L20.5731 11.9995C20.5802 11.9954 20.5881 11.9933 20.5962 11.9933C20.6044 11.9933 20.6123 11.9955 20.6194 11.9995C20.6264 12.0036 20.6322 12.0095 20.6362 12.0165C20.6403 12.0235 20.6424 12.0315 20.6424 12.0396V15.3749C20.6424 15.5736 20.7951 15.7442 20.9938 15.7541C21.0437 15.7565 21.0936 15.7487 21.1405 15.7313C21.1873 15.7139 21.2301 15.6871 21.2663 15.6526C21.3025 15.6181 21.3313 15.5767 21.351 15.5307C21.3707 15.4848 21.3808 15.4353 21.3808 15.3853V11.3238C21.3808 11.3122 21.3802 11.3007 21.379 11.2892Z" fill="#004CC4"/>
</g>
<defs>
<clipPath id="clip0_4147_224095">
<rect width="11.8154" height="11.8154" fill="white" transform="translate(9.93457 6.89307)"/>
</clipPath>
</defs>
</svg>
