<svg xmlns="http://www.w3.org/2000/svg" width="24" height="24" fill="none"><path fill="#000" fill-rule="evenodd" d="M1.018 11.165C4.068 6.793 8.022 4 11.984 4c4.653 0 8.661 3.531 11.026 7.184l.001.001a1.507 1.507 0 0 1 .001 1.63C20.649 16.515 16.667 20 11.984 20 7.251 20 3.346 16.52.99 12.832a1.5 1.5 0 0 1 .026-1.664l.003-.003Zm1.232.855.002.003C4.429 15.43 7.918 18.5 11.984 18.5c4.02 0 7.585-3.08 9.764-6.493l.002-.003v-.007C19.562 8.62 15.969 5.5 11.984 5.5 8.64 5.5 5.1 7.936 2.25 12.02Z" clip-rule="evenodd"/><path fill="#000" fill-rule="evenodd" d="M12 9.333a2.667 2.667 0 1 0 0 5.334 2.667 2.667 0 0 0 0-5.334ZM8 12a4 4 0 1 1 8 0 4 4 0 0 1-8 0Z" clip-rule="evenodd"/></svg>