<svg width="20" height="20" viewBox="0 0 20 20" fill="none" xmlns="http://www.w3.org/2000/svg">
<path fill-rule="evenodd" clip-rule="evenodd" d="M0.847994 9.30371C3.38966 5.66041 6.68521 3.33331 9.98676 3.33331C13.8643 3.33331 17.2044 6.27606 19.1751 9.31967L19.176 9.3211C19.3064 9.52373 19.3757 9.7596 19.3757 10.0006C19.3757 10.2411 19.3067 10.4765 19.1767 10.6789C17.2078 13.7617 13.8892 16.6666 9.98676 16.6666C6.04275 16.6666 2.78817 13.7669 0.824077 10.6931C0.690619 10.4858 0.621399 10.2438 0.625144 9.99728C0.628899 9.75019 0.705813 9.50974 0.846168 9.30634L0.847994 9.30371ZM1.87501 10.0163L1.87673 10.019C3.69084 12.8587 6.59844 15.4166 9.98676 15.4166C13.3371 15.4166 16.3074 12.8496 18.1237 10.0054L18.1249 10.0035L18.1257 10.0006L18.1256 9.99926L18.125 9.99773C16.3018 7.1826 13.3072 4.58331 9.98676 4.58331C7.19996 4.58331 4.25021 6.61294 1.87501 10.0163Z" fill="#0A5FE7"/>
<path fill-rule="evenodd" clip-rule="evenodd" d="M10.0001 7.7778C8.77278 7.7778 7.77786 8.77272 7.77786 10C7.77786 11.2273 8.77278 12.2222 10.0001 12.2222C11.2274 12.2222 12.2223 11.2273 12.2223 10C12.2223 8.77272 11.2274 7.7778 10.0001 7.7778ZM6.66675 10C6.66675 8.15907 8.15913 6.66669 10.0001 6.66669C11.841 6.66669 13.3334 8.15907 13.3334 10C13.3334 11.841 11.841 13.3334 10.0001 13.3334C8.15913 13.3334 6.66675 11.841 6.66675 10Z" fill="#0A5FE7"/>
</svg>
