<svg xmlns="http://www.w3.org/2000/svg" width="40" height="40" fill="none"><rect width="40" height="40" fill="#004CC4" rx="4"/><path fill="#fff" fill-rule="evenodd" d="M7.797 19.072c3.39-4.858 7.783-7.96 12.185-7.96 5.17 0 9.624 3.923 12.251 7.98l.002.003a1.674 1.674 0 0 1 0 1.81c-2.625 4.11-7.05 7.984-12.253 7.984-5.258 0-9.598-3.866-12.217-7.965a1.667 1.667 0 0 1 .03-1.849l.002-.003Zm1.37.95.002.003c2.419 3.787 6.295 7.197 10.813 7.197 4.467 0 8.428-3.423 10.85-7.215l.001-.002.001-.004v-.004c-2.432-3.753-6.424-7.22-10.852-7.22-3.715 0-7.648 2.707-10.815 7.245Z" clip-rule="evenodd"/><path fill="#fff" fill-rule="evenodd" d="M20 17.037a2.963 2.963 0 1 0 0 5.926 2.963 2.963 0 0 0 0-5.926ZM15.556 20a4.445 4.445 0 1 1 8.889 0 4.445 4.445 0 0 1-8.89 0Z" clip-rule="evenodd"/></svg>