<svg xmlns="http://www.w3.org/2000/svg" width="24" height="24" fill="none"><path fill="#040528" fill-rule="evenodd" d="M3.375 4.5A1.125 1.125 0 0 0 2.25 5.625V8.25h19.5V7.125A1.125 1.125 0 0 0 20.625 6H10.318a2.625 2.625 0 0 1-1.457-.441l-1.305-.87a1.125 1.125 0 0 0-.624-.189H3.375ZM21.75 9.75H2.25v8.625A1.125 1.125 0 0 0 3.375 19.5h17.25a1.125 1.125 0 0 0 1.125-1.125V9.75Zm-21 8.625A2.625 2.625 0 0 0 3.375 21h17.25a2.625 2.625 0 0 0 2.625-2.625V7.125A2.625 2.625 0 0 0 20.625 4.5H10.318c-.222 0-.44-.066-.624-.189l-1.305-.87A2.625 2.625 0 0 0 6.932 3H3.375A2.625 2.625 0 0 0 .75 5.625v12.75Z" clip-rule="evenodd"/></svg>