<svg width="32" height="32" viewBox="0 0 32 32" fill="none" xmlns="http://www.w3.org/2000/svg">
<path d="M15.7015 0C8.71272 0 3.53465 4.92308 3.04213 11.3934C2.15068 23.1046 15.7015 32 15.7015 32C15.7015 32 29.6828 23.5591 28.3608 11.3934C27.6577 4.92308 22.6902 0 15.7015 0Z" fill="#004CC4"/>
<circle cx="15.8422" cy="12.8007" r="9.84615" fill="white"/>
<g clip-path="url(#clip0_4147_224098)">
<path d="M15.8424 9.47768C15.5868 9.47768 15.3369 9.40189 15.1244 9.25989C14.9119 9.11789 14.7462 8.91606 14.6484 8.67992C14.5506 8.44378 14.525 8.18394 14.5749 7.93326C14.6247 7.68257 14.7478 7.45231 14.9286 7.27158C15.1093 7.09084 15.3396 6.96776 15.5902 6.9179C15.8409 6.86803 16.1008 6.89363 16.3369 6.99144C16.573 7.08925 16.7749 7.25489 16.9169 7.46741C17.0589 7.67993 17.1347 7.92978 17.1347 8.18537C17.1343 8.528 16.998 8.85649 16.7558 9.09877C16.5135 9.34104 16.185 9.47732 15.8424 9.47768Z" fill="#004CC4"/>
<path d="M19.9038 9.49615L19.8934 9.49892L19.8837 9.50192C19.8606 9.50838 19.8376 9.5153 19.8145 9.52246C19.385 9.64846 17.3007 10.236 15.8323 10.236C14.4678 10.236 12.572 9.7283 11.9656 9.55592C11.9052 9.53258 11.8436 9.5127 11.7809 9.49638C11.3425 9.381 11.0425 9.82638 11.0425 10.2335C11.0425 10.6366 11.4048 10.8286 11.7706 10.9664V10.9728L13.9679 11.6592C14.1925 11.7452 14.2525 11.8332 14.2818 11.9093C14.3771 12.1537 14.3009 12.6376 14.2739 12.8065L14.1401 13.845L13.3972 17.9109C13.3949 17.922 13.3929 17.9333 13.391 17.9448L13.3857 17.9742C13.3322 18.3468 13.6059 18.7085 14.1242 18.7085C14.5765 18.7085 14.7761 18.3962 14.8626 17.9714C14.9492 17.5465 15.5088 14.3352 15.8319 14.3352C16.1549 14.3352 16.8205 17.9714 16.8205 17.9714C16.907 18.3962 17.1066 18.7085 17.5589 18.7085C18.0786 18.7085 18.3523 18.3452 18.2974 17.9714C18.2927 17.94 18.2868 17.9087 18.2799 17.8777L17.5269 13.8455L17.3932 12.807C17.2966 12.2022 17.3743 12.0023 17.4006 11.9555C17.4013 11.9544 17.402 11.9532 17.4025 11.952C17.4274 11.9058 17.5409 11.8025 17.8059 11.703L19.8662 10.9828C19.8788 10.9794 19.8913 10.9754 19.9036 10.9708C20.2728 10.8323 20.642 10.6408 20.642 10.2339C20.642 9.82707 20.3422 9.381 19.9038 9.49615Z" fill="#004CC4"/>
</g>
<defs>
<clipPath id="clip0_4147_224098">
<rect width="11.8154" height="11.8154" fill="white" transform="translate(9.93457 6.89307)"/>
</clipPath>
</defs>
</svg>
