<svg xmlns="http://www.w3.org/2000/svg" width="24" height="24" fill="none"><path fill="#000" fill-rule="evenodd" d="M12.637 4.385a4.935 4.935 0 0 1 6.978 6.978l-.01.01-2.467 2.467a4.934 4.934 0 0 1-7.441-.533.822.822 0 1 1 1.317-.985 3.289 3.289 0 0 0 4.96.355l2.462-2.462a3.29 3.29 0 0 0-4.652-4.65l-1.41 1.401a.822.822 0 0 1-1.16-1.166l1.415-1.407.008-.008Z" clip-rule="evenodd"/><path fill="#000" fill-rule="evenodd" d="M8.627 9.009a4.935 4.935 0 0 1 5.676 1.667.822.822 0 1 1-1.317.985 3.29 3.29 0 0 0-4.96-.355l-2.462 2.462a3.29 3.29 0 0 0 4.65 4.651l1.402-1.4a.823.823 0 0 1 1.163 1.163l-1.406 1.406-.01.01a4.935 4.935 0 0 1-6.978-6.977l.01-.01 2.467-2.468c.5-.5 1.103-.887 1.765-1.134Z" clip-rule="evenodd"/></svg>