<svg xmlns="http://www.w3.org/2000/svg" width="40" height="40" fill="none"><rect width="40" height="40" fill="#004CC4" rx="4"/><path fill="#fff" d="M19.205 10.271c-2.619 0-4.75 2.158-4.75 4.812 0 2.653 2.131 4.81 4.75 4.81s4.748-2.157 4.748-4.81c0-2.654-2.13-4.812-4.748-4.812Zm0 2.82c1.084 0 1.965.894 1.965 1.992 0 1.097-.881 1.991-1.965 1.991s-1.966-.894-1.966-1.991c0-1.098.882-1.993 1.966-1.993Zm-3.916 6.966a1.384 1.384 0 0 0-1.2.66c-.41.66-.213 1.53.436 1.944.86.546 1.791.933 2.757 1.156l-2.654 2.69a1.423 1.423 0 0 0 0 1.994 1.38 1.38 0 0 0 1.968 0l2.608-2.643 2.61 2.643c.543.55 1.423.55 1.967 0a1.422 1.422 0 0 0 0-1.993l-2.655-2.69a8.831 8.831 0 0 0 2.756-1.157 1.42 1.42 0 0 0 .438-1.944 1.38 1.38 0 0 0-1.92-.443 5.964 5.964 0 0 1-6.392 0 1.371 1.371 0 0 0-.719-.217Z"/></svg>