<svg width="24" height="25" viewBox="0 0 24 25" fill="none" xmlns="http://www.w3.org/2000/svg">
<path d="M11.9271 3.92871C9.43593 3.92871 7.40941 5.98174 7.40941 8.50563C7.40941 11.0293 9.43593 13.0814 11.9271 13.0814C14.4181 13.0814 16.4437 11.0293 16.4437 8.50563C16.4437 5.98174 14.4181 3.92871 11.9271 3.92871ZM11.9271 6.61036C12.9581 6.61036 13.7965 7.46099 13.7965 8.50563C13.7965 9.54984 12.9581 10.3998 11.9271 10.3998C10.8958 10.3998 10.0566 9.54986 10.0566 8.50563C10.0566 7.46099 10.8958 6.61036 11.9271 6.61036ZM8.20247 13.2372C7.75551 13.2301 7.31598 13.4533 7.06101 13.865C6.67137 14.4922 6.85803 15.3198 7.4756 15.7143C8.29248 16.2336 9.1789 16.602 10.0981 16.8143L7.5735 19.3735C7.05667 19.8974 7.05711 20.746 7.57405 21.2699C7.83314 21.5314 8.17107 21.6623 8.50985 21.6623C8.84829 21.6623 9.18735 21.5312 9.44566 21.2694L11.926 18.7551L14.4085 21.2694C14.9249 21.7931 15.7623 21.7931 16.2796 21.2694C16.7966 20.7458 16.7966 19.8963 16.2796 19.3735L13.7538 16.8149C14.6734 16.6026 15.5601 16.234 16.3764 15.7143C16.9952 15.3198 17.1821 14.4913 16.7926 13.8651C16.4026 13.2377 15.5862 13.0488 14.9669 13.4439C13.1175 14.6226 10.7345 14.6218 8.88558 13.4439C8.67276 13.3081 8.43659 13.2409 8.20247 13.2372V13.2372Z" fill="white"/>
</svg>
