<svg width="20" height="20" viewBox="0 0 20 20" fill="none" xmlns="http://www.w3.org/2000/svg">
<g clip-path="url(#clip0_2502_46838)">
<path d="M9.40384 2.70312C7.43967 2.70312 5.84183 4.32186 5.84183 6.31185C5.84183 8.30169 7.43967 9.9197 9.40384 9.9197C11.3679 9.9197 12.965 8.30169 12.965 6.31185C12.965 4.32186 11.368 2.70312 9.40384 2.70312ZM9.40384 4.8175C10.2168 4.8175 10.8778 5.48819 10.8778 6.31185C10.8778 7.13517 10.2168 7.80534 9.40384 7.80534C8.59076 7.80534 7.92901 7.13518 7.92901 6.31185C7.92901 5.48819 8.59076 4.8175 9.40384 4.8175ZM6.46713 10.0425C6.11472 10.0369 5.76817 10.2129 5.56714 10.5375C5.25992 11.032 5.40709 11.6846 5.89402 11.9956C6.5381 12.405 7.23701 12.6955 7.9618 12.8629L5.97122 14.8808C5.56372 15.2939 5.56406 15.9629 5.97165 16.376C6.17593 16.5822 6.44238 16.6853 6.70949 16.6853C6.97634 16.6853 7.24367 16.582 7.44734 16.3756L9.403 14.3931L11.3604 16.3756C11.7675 16.7885 12.4278 16.7885 12.8356 16.3756C13.2433 15.9627 13.2433 15.293 12.8356 14.8808L10.8442 12.8634C11.5692 12.696 12.2683 12.4053 12.912 11.9956C13.3999 11.6846 13.5472 11.0313 13.2401 10.5375C12.9327 10.0429 12.2889 9.89393 11.8007 10.2055C10.3424 11.1349 8.46351 11.1342 7.00574 10.2055C6.83794 10.0984 6.65173 10.0454 6.46713 10.0425V10.0425Z" fill="#004CC4"/>
</g>
<defs>
<clipPath id="clip0_2502_46838">
<rect width="20" height="20" fill="white"/>
</clipPath>
</defs>
</svg>
