<svg width="16" height="16" viewBox="0 0 16 16" fill="none" xmlns="http://www.w3.org/2000/svg">
<path d="M7.5231 2.1626C5.95176 2.1626 4.67349 3.45759 4.67349 5.04958C4.67349 6.64145 5.95176 7.93586 7.5231 7.93586C9.09438 7.93586 10.372 6.64145 10.372 5.04958C10.372 3.45759 9.09439 2.1626 7.5231 2.1626ZM7.5231 3.8541C8.17343 3.8541 8.70227 4.39065 8.70227 5.04958C8.70227 5.70823 8.17344 6.24437 7.5231 6.24437C6.87263 6.24437 6.34324 5.70824 6.34324 5.04958C6.34324 4.39065 6.87263 3.8541 7.5231 3.8541ZM5.17373 8.03408C4.8918 8.02964 4.61456 8.17045 4.45374 8.43013C4.20796 8.82573 4.3257 9.34776 4.71524 9.59659C5.23051 9.92413 5.78963 10.1565 6.36947 10.2905L4.777 11.9047C4.451 12.2352 4.45128 12.7704 4.77734 13.1009C4.94077 13.2658 5.15393 13.3484 5.36762 13.3484C5.58109 13.3484 5.79496 13.2657 5.9579 13.1005L7.52242 11.5146L9.08833 13.1005C9.41405 13.4309 9.94223 13.4309 10.2685 13.1005C10.5947 12.7703 10.5947 12.2345 10.2685 11.9047L8.67537 10.2908C9.25537 10.1569 9.81468 9.92437 10.3296 9.5966C10.7199 9.34777 10.8378 8.82517 10.5921 8.43014C10.3461 8.03444 9.83115 7.91524 9.44055 8.16447C8.27397 8.90798 6.77083 8.90749 5.60462 8.16447C5.47038 8.0788 5.32141 8.03642 5.17373 8.03409V8.03408Z" fill="white"/>
</svg>
