<svg width="20" height="20" viewBox="0 0 20 20" fill="none" xmlns="http://www.w3.org/2000/svg">
<path d="M9.40384 2.70331C7.43967 2.70331 5.84183 4.32204 5.84183 6.31204C5.84183 8.30187 7.43967 9.91988 9.40384 9.91988C11.3679 9.91988 12.965 8.30187 12.965 6.31204C12.965 4.32204 11.368 2.70331 9.40384 2.70331ZM9.40384 4.81769C10.2168 4.81769 10.8778 5.48837 10.8778 6.31204C10.8778 7.13535 10.2168 7.80552 9.40384 7.80552C8.59076 7.80552 7.92901 7.13537 7.92901 6.31204C7.92901 5.48837 8.59076 4.81769 9.40384 4.81769ZM6.46713 10.0427C6.11472 10.0371 5.76817 10.2131 5.56714 10.5377C5.25992 11.0322 5.40709 11.6848 5.89402 11.9958C6.5381 12.4052 7.23701 12.6957 7.9618 12.8631L5.97122 14.8809C5.56372 15.294 5.56406 15.9631 5.97165 16.3762C6.17593 16.5823 6.44238 16.6855 6.70949 16.6855C6.97634 16.6855 7.24367 16.5822 7.44734 16.3757L9.403 14.3933L11.3604 16.3757C11.7675 16.7887 12.4278 16.7887 12.8356 16.3757C13.2433 15.9629 13.2433 15.2932 12.8356 14.881L10.8442 12.8636C11.5692 12.6962 12.2683 12.4055 12.912 11.9958C13.3999 11.6848 13.5472 11.0315 13.2401 10.5377C12.9327 10.0431 12.2889 9.89411 11.8007 10.2057C10.3424 11.135 8.46351 11.1344 7.00574 10.2057C6.83794 10.0986 6.65173 10.0456 6.46713 10.0427V10.0427Z"/>
</svg>
