<svg xmlns="http://www.w3.org/2000/svg" width="24" height="24" fill="none"><path fill="#1A2D82" d="M11.285 3.244c-2.357 0-4.275 1.942-4.275 4.33s1.918 4.33 4.275 4.33 4.273-1.942 4.273-4.33-1.916-4.33-4.273-4.33Zm0 2.537c.975 0 1.768.805 1.768 1.793 0 .988-.793 1.793-1.768 1.793-.976 0-1.77-.805-1.77-1.793 0-.988.794-1.793 1.77-1.793Zm-3.524 6.27a1.246 1.246 0 0 0-1.08.594 1.28 1.28 0 0 0 .392 1.75 7.96 7.96 0 0 0 2.481 1.04l-2.389 2.422a1.28 1.28 0 0 0 0 1.794 1.242 1.242 0 0 0 1.772 0l2.347-2.379 2.348 2.379a1.24 1.24 0 0 0 1.77 0c.49-.495.49-1.3 0-1.794l-2.389-2.42c.87-.202 1.709-.55 2.481-1.042a1.279 1.279 0 0 0 .394-1.75 1.242 1.242 0 0 0-1.727-.398 5.368 5.368 0 0 1-5.754 0 1.235 1.235 0 0 0-.646-.196Z"/></svg>