<svg xmlns="http://www.w3.org/2000/svg" width="24" height="24" fill="none"><path fill="#E2E5E7" d="M6 0c-.825 0-1.5.675-1.5 1.5v21c0 .825.675 1.5 1.5 1.5h15c.825 0 1.5-.675 1.5-1.5V6l-6-6H6Z"/><path fill="#B0B7BD" d="M18 6h4.5l-6-6v4.5c0 .825.675 1.5 1.5 1.5Z"/><path fill="#CAD1D8" d="M22.5 10.5 18 6h4.5v4.5Z"/><path fill="#F15642" d="M19.5 19.5c0 .413-.337.75-.75.75H2.25a.752.752 0 0 1-.75-.75V12c0-.412.337-.75.75-.75h16.5c.413 0 .75.338.75.75v7.5Z"/><path fill="#fff" d="M4.77 14.21c0-.198.155-.414.407-.414h1.385c.78 0 1.482.522 1.482 1.523 0 .948-.702 1.476-1.482 1.476H5.56v.792c0 .264-.168.413-.384.413a.404.404 0 0 1-.408-.413V14.21Zm.79.341v1.495h1.002c.402 0 .72-.355.72-.727 0-.42-.318-.768-.72-.768H5.56ZM9.218 18c-.198 0-.414-.108-.414-.371v-3.407c0-.215.216-.372.414-.372h1.373c2.741 0 2.681 4.15.055 4.15H9.218Zm.378-3.418v2.687h.995c1.62 0 1.692-2.687 0-2.687h-.995ZM14.244 14.63v.954h1.53c.215 0 .431.216.431.425 0 .198-.216.36-.432.36h-1.529v1.259c0 .21-.15.371-.36.371-.263 0-.425-.161-.425-.371v-3.406c0-.216.162-.372.426-.372h2.105c.264 0 .42.156.42.372a.414.414 0 0 1-.42.408h-1.746Z"/><path fill="#CAD1D8" d="M18.75 20.25H4.5V21h14.25c.413 0 .75-.337.75-.75v-.75c0 .413-.337.75-.75.75Z"/></svg>