<svg xmlns="http://www.w3.org/2000/svg" width="24" height="24" fill="none"><path fill="#000" fill-rule="evenodd" d="M5.1 2a.9.9 0 0 1 .9-.9h12a.9.9 0 0 1 .9.9v7a.9.9 0 1 1-1.8 0V2.9H6.9V9a.9.9 0 0 1-1.8 0V2Z" clip-rule="evenodd"/><path fill="#000" fill-rule="evenodd" d="M4 9.9A1.1 1.1 0 0 0 2.9 11v5A1.1 1.1 0 0 0 4 17.1h2a.9.9 0 1 1 0 1.8H4A2.9 2.9 0 0 1 1.1 16v-5A2.9 2.9 0 0 1 4 8.1h16a2.9 2.9 0 0 1 2.9 2.9v5a2.9 2.9 0 0 1-2.9 2.9h-2a.9.9 0 1 1 0-1.8h2a1.1 1.1 0 0 0 1.1-1.1v-5A1.1 1.1 0 0 0 20 9.9H4Z" clip-rule="evenodd"/><path fill="#000" fill-rule="evenodd" d="M5.1 14a.9.9 0 0 1 .9-.9h12a.9.9 0 0 1 .9.9v8a.9.9 0 0 1-.9.9H6a.9.9 0 0 1-.9-.9v-8Zm1.8.9v6.2h10.2v-6.2H6.9Z" clip-rule="evenodd"/></svg>