<svg width="32" height="32" viewBox="0 0 32 32" fill="none" xmlns="http://www.w3.org/2000/svg">
<path d="M15.7015 0C8.71272 0 3.53465 4.92308 3.04213 11.3934C2.15068 23.1046 15.7015 32 15.7015 32C15.7015 32 29.6828 23.5591 28.3608 11.3934C27.6577 4.92308 22.6902 0 15.7015 0Z" fill="#004CC4"/>
<circle cx="15.8422" cy="12.8007" r="9.84615" fill="white"/>
<g clip-path="url(#clip0_4147_224092)">
<path d="M16.5807 17.6008H15.1038C15.0058 17.6008 14.9119 17.6397 14.8427 17.7089C14.7734 17.7782 14.7345 17.8721 14.7345 17.97C14.7345 18.068 14.7734 18.1619 14.8427 18.2311C14.9119 18.3004 15.0058 18.3393 15.1038 18.3393H16.5807C16.6786 18.3393 16.7725 18.3004 16.8418 18.2311C16.911 18.1619 16.9499 18.068 16.9499 17.97C16.9499 17.8721 16.911 17.7782 16.8418 17.7089C16.7725 17.6397 16.6786 17.6008 16.5807 17.6008ZM16.9499 16.4931H14.7345C14.6366 16.4931 14.5427 16.532 14.4734 16.6013C14.4042 16.6705 14.3653 16.7644 14.3653 16.8623C14.3653 16.9603 14.4042 17.0542 14.4734 17.1234C14.5427 17.1927 14.6366 17.2316 14.7345 17.2316H16.9499C17.0478 17.2316 17.1418 17.1927 17.211 17.1234C17.2802 17.0542 17.3191 16.9603 17.3191 16.8623C17.3191 16.7644 17.2802 16.6705 17.211 16.6013C17.1418 16.532 17.0478 16.4931 16.9499 16.4931ZM18.4596 8.3398C17.7657 7.64495 16.8361 7.26234 15.8422 7.26234C15.357 7.26118 14.8764 7.3559 14.4279 7.54104C13.9794 7.72619 13.5719 7.99812 13.2288 8.34121C12.8857 8.68431 12.6138 9.0918 12.4286 9.54029C12.2435 9.98879 12.1488 10.4694 12.1499 10.9546C12.1499 12.0305 12.5623 13.0369 13.2807 13.7156L13.3813 13.81C13.7969 14.1986 14.3653 14.731 14.3653 15.2008V15.7546C14.3653 15.8526 14.4042 15.9465 14.4734 16.0157C14.5427 16.085 14.6366 16.1239 14.7345 16.1239H15.2884C15.3373 16.1239 15.3843 16.1044 15.4189 16.0698C15.4535 16.0352 15.473 15.9882 15.473 15.9393V13.2351C15.473 13.1978 15.4617 13.1613 15.4406 13.1305C15.4194 13.0998 15.3895 13.0761 15.3546 13.0627C15.1414 12.9757 14.9388 12.8646 14.7509 12.7316C14.7087 12.7046 14.6724 12.6693 14.6442 12.6279C14.6161 12.5864 14.5966 12.5397 14.5871 12.4905C14.5776 12.4413 14.5782 12.3907 14.5889 12.3417C14.5996 12.2927 14.6201 12.2465 14.6492 12.2057C14.6784 12.1649 14.7155 12.1305 14.7583 12.1046C14.8012 12.0786 14.8489 12.0616 14.8985 12.0547C14.9482 12.0478 14.9987 12.051 15.047 12.0642C15.0953 12.0774 15.1405 12.1003 15.1797 12.1316C15.3505 12.2525 15.6793 12.4316 15.8422 12.4316C16.0051 12.4316 16.334 12.252 16.5052 12.1316C16.5849 12.0814 16.6808 12.0637 16.7732 12.0819C16.8656 12.1001 16.9475 12.153 17.0023 12.2296C17.057 12.3063 17.0803 12.4009 17.0676 12.4942C17.0548 12.5876 17.0068 12.6725 16.9335 12.7316C16.7456 12.8644 16.543 12.9753 16.3298 13.062C16.295 13.0754 16.265 13.0991 16.2439 13.1298C16.2227 13.1606 16.2114 13.1971 16.2115 13.2344V15.9393C16.2115 15.9882 16.2309 16.0352 16.2655 16.0698C16.3001 16.1044 16.3471 16.1239 16.3961 16.1239H16.9499C17.0478 16.1239 17.1418 16.085 17.211 16.0157C17.2802 15.9465 17.3191 15.8526 17.3191 15.7546V15.2008C17.3191 14.742 17.8813 14.2101 18.2918 13.8215L18.4051 13.714C19.1441 13.0085 19.5345 12.0533 19.5345 10.9546C19.537 10.4694 19.4432 9.98847 19.2587 9.53966C19.0742 9.09084 18.8026 8.68304 18.4596 8.3398Z" fill="#004CC4"/>
</g>
<defs>
<clipPath id="clip0_4147_224092">
<rect width="11.8154" height="11.8154" fill="white" transform="translate(9.93457 6.89307)"/>
</clipPath>
</defs>
</svg>
