<svg xmlns="http://www.w3.org/2000/svg" width="25" height="24" fill="none"><path fill="#1A2D82" d="M12.5 8.25A3.75 3.75 0 1 0 16.25 12a3.761 3.761 0 0 0-3.75-3.75ZM20.596 12c-.002.35-.027.7-.077 1.047l2.283 1.787a.543.543 0 0 1 .123.693l-2.16 3.727a.546.546 0 0 1-.662.231l-2.684-1.078a8.27 8.27 0 0 1-1.82 1.063l-.4 2.85a.56.56 0 0 1-.54.461h-4.318a.561.561 0 0 1-.54-.447l-.4-2.849a7.94 7.94 0 0 1-1.82-1.063L4.896 19.5a.545.545 0 0 1-.663-.23l-2.159-3.728a.543.543 0 0 1 .123-.692l2.283-1.787A8.184 8.184 0 0 1 4.404 12c.002-.35.027-.7.077-1.047L2.198 9.166a.543.543 0 0 1-.123-.693l2.16-3.727a.546.546 0 0 1 .662-.231L7.58 5.593A8.276 8.276 0 0 1 9.4 4.53l.401-2.85a.56.56 0 0 1 .54-.461h4.318a.563.563 0 0 1 .54.446l.4 2.85c.653.271 1.266.63 1.823 1.063L20.103 4.5a.546.546 0 0 1 .663.23l2.159 3.728a.543.543 0 0 1-.123.693l-2.283 1.787c.049.352.075.707.077 1.062Z"/></svg>