<svg xmlns="http://www.w3.org/2000/svg" width="25" height="24" fill="none"><path fill="#1A2D82" d="M22.459 4.897a.828.828 0 0 0-.18-.473.7.7 0 0 0-.407-.25C18.01 3.41 16.398 2.86 12.794 1.07a.66.66 0 0 0-.588 0C8.602 2.86 6.99 3.41 3.128 4.173a.7.7 0 0 0-.407.25.828.828 0 0 0-.18.474c-.172 3.001.195 5.797 1.09 8.31a17.462 17.462 0 0 0 3.2 5.526c2.386 2.786 4.92 3.996 5.404 4.21a.655.655 0 0 0 .536 0c.483-.214 3.018-1.424 5.405-4.21a17.468 17.468 0 0 0 3.192-5.525c.896-2.514 1.263-5.31 1.09-8.31ZM16.61 8.585l-4.946 6.286a.727.727 0 0 1-.23.194.663.663 0 0 1-.28.078h-.029a.682.682 0 0 1-.5-.225l-2.197-2.367a.793.793 0 0 1-.157-.253.854.854 0 0 1 .147-.858.684.684 0 0 1 .503-.236.682.682 0 0 1 .507.225l1.652 1.782 4.451-5.654a.728.728 0 0 1 .22-.188.665.665 0 0 1 .788.108c.07.068.13.15.171.242a.845.845 0 0 1 .04.6.81.81 0 0 1-.138.266h-.002Z"/></svg>