<svg xmlns="http://www.w3.org/2000/svg" width="40" height="40" fill="none"><rect width="40" height="40" fill="#004CC4" rx="4"/><path fill="#fff" d="M9.839 19.266c1.984-1.094 4.2-2.006 6.27-2.923 3.56-1.502 7.135-2.978 10.746-4.352.703-.234 1.965-.463 2.09.578-.068 1.474-.347 2.94-.538 4.404-.486 3.223-1.047 6.434-1.594 9.645-.189 1.07-1.529 1.623-2.386.939-2.06-1.392-4.137-2.77-6.172-4.194-.666-.678-.048-1.65.547-2.133 1.697-1.673 3.497-3.094 5.106-4.853.434-1.048-.848-.165-1.271.106-2.324 1.6-4.59 3.3-7.04 4.707-1.251.689-2.71.1-3.96-.284-1.122-.465-2.765-.932-1.798-1.64Z"/></svg>