<svg width="28" height="28" viewBox="0 0 28 28" fill="none" xmlns="http://www.w3.org/2000/svg">
<path d="M3.83888 13.2656C5.82339 12.1725 8.03864 11.2601 10.1085 10.3431C13.6694 8.84118 17.2444 7.36524 20.8555 5.99115C21.5581 5.75702 22.8205 5.52806 22.9443 6.56926C22.8766 8.04308 22.5977 9.50827 22.4065 10.9735C21.921 14.1955 21.3599 17.4066 20.8128 20.6181C20.6243 21.6878 19.2843 22.2416 18.4268 21.557C16.3662 20.1651 14.2897 18.7868 12.2554 17.3626C11.589 16.6855 12.2069 15.7131 12.8021 15.2295C14.4993 13.557 16.2992 12.1359 17.9077 10.3769C18.3416 9.3291 17.0596 10.2121 16.6367 10.4827C14.3133 12.0838 12.0467 13.7827 9.59699 15.1899C8.3457 15.8787 6.8873 15.2901 5.63658 14.9057C4.51514 14.4414 2.87183 13.9737 3.83877 13.2657L3.83888 13.2656Z" fill="white"/>
</svg>
