<svg width="20" height="20" viewBox="0 0 20 20" fill="none" xmlns="http://www.w3.org/2000/svg">
<path d="M2.37916 9.44922C3.86754 8.62937 5.52898 7.94512 7.08135 7.25738C9.75203 6.1309 12.4333 5.02394 15.1417 3.99338C15.6686 3.81778 16.6154 3.64606 16.7082 4.42696C16.6574 5.53233 16.4483 6.63122 16.3048 7.73011C15.9408 10.1467 15.52 12.555 15.1096 14.9636C14.9682 15.7659 13.9632 16.1812 13.3201 15.6678C11.7746 14.6238 10.2173 13.5901 8.69154 12.522C8.19175 12.0141 8.6552 11.2848 9.10157 10.9222C10.3745 9.66773 11.7244 8.60194 12.9308 7.28268C13.2562 6.49684 12.2947 7.15913 11.9776 7.36204C10.2349 8.5629 8.53499 9.83707 6.69774 10.8925C5.75927 11.4091 4.66548 10.9676 3.72743 10.6793C2.88636 10.3311 1.65387 9.98025 2.37908 9.44927L2.37916 9.44922Z" fill="#004CC4"/>
</svg>
