<svg xmlns="http://www.w3.org/2000/svg" width="24" height="24" fill="none"><path fill="#1A2D82" d="M2.855 11.339c1.786-.984 3.78-1.805 5.643-2.63 3.204-1.352 6.422-2.68 9.672-3.917.632-.21 1.768-.417 1.88.52-.061 1.327-.312 2.645-.484 3.964-.437 2.9-.942 5.79-1.434 8.68-.17.963-1.376 1.461-2.148.845-1.854-1.252-3.723-2.493-5.554-3.775-.6-.61-.044-1.484.492-1.92 1.527-1.505 3.147-2.784 4.595-4.367.39-.943-.763-.148-1.144.095-2.091 1.441-4.131 2.97-6.336 4.237-1.126.62-2.438.09-3.564-.256-1.01-.418-2.488-.839-1.618-1.476Z"/></svg>