<svg xmlns="http://www.w3.org/2000/svg" width="25" height="24" fill="none"><path fill="#1A2D82" d="M2.727 4.875H20.75v-2.46a.75.75 0 0 0-.897-.736L2.603 4.514a.75.75 0 0 0-.563.491 1.86 1.86 0 0 1 .687-.13ZM22.227 6h-19.5a.75.75 0 0 0-.75.75v13.5a.75.75 0 0 0 .75.75h19.5a.75.75 0 0 0 .75-.75V6.75a.75.75 0 0 0-.75-.75Zm-4.477 9a1.5 1.5 0 1 1 0-3 1.5 1.5 0 0 1 0 3Z"/><path fill="#1A2D82" d="M1.969 12.164V5.438c0-.578.268-.867.722-.938 1.65-.26 5.09-.398 5.09-.398s-.39.75-1.281.75V6c.867 0 1.469 1.102 1.469 1.102l-3.493 3.96-2.507 1.102Z"/></svg>